<svg width="254" height="254" viewBox="0 0 254 254" fill="none" xmlns="http://www.w3.org/2000/svg">
<path d="M114.527 2.41035C107.898 4.23558 100.354 6.74527 98.0679 8.1142C95.7819 9.25496 89.3812 10.3957 84.1235 10.3957C70.1791 10.3957 57.1491 17.6966 41.8331 33.8956C29.9461 46.444 24.0026 55.7983 6.1721 88.8806C1.37158 97.7786 -1.60017 115.803 0.914386 121.507C2.05737 123.788 2.51456 126.526 2.28596 127.667C2.05737 129.036 3.42895 136.565 5.25772 144.778C7.08649 152.992 9.37245 163.715 10.0582 168.506C11.4298 176.948 24.917 202.729 29.4889 205.467C30.8605 206.38 34.5181 212.084 37.4898 218.244C43.2047 229.195 56.4633 241.287 68.1217 245.622C79.323 249.957 122.299 254.976 138.529 253.836C162.075 252.01 214.423 231.248 227.225 218.7C233.397 212.54 233.626 211.399 246.656 161.205C255.114 129.264 255.114 128.351 252.37 111.696C248.256 88.1961 238.883 61.5021 229.968 48.0411C221.51 35.0363 202.994 21.5753 186.077 15.8714C179.905 13.818 169.847 9.71127 163.904 6.51712C149.959 -0.327499 130.3 -1.92456 114.527 2.41035ZM158.875 9.93942C163.675 13.5899 173.505 18.153 180.363 20.2063C196.593 24.9976 213.738 36.4052 222.653 48.2692C234.311 63.5555 245.741 95.9533 248.027 119.681C248.713 128.579 232.94 192.919 226.31 207.749C222.424 216.647 219.91 218.7 202.765 226.914C192.478 231.933 175.562 238.778 165.504 241.972C148.816 247.676 145.159 248.132 122.07 246.991C74.0652 244.481 57.6063 238.321 46.4051 218.472C42.9761 212.54 37.2612 204.554 33.8323 200.904C25.8314 192.006 18.9735 177.86 16.9161 166.681C16.0017 161.662 13.2586 149.798 10.744 140.443C2.51456 110.099 8.68666 87.7398 35.8896 50.7789C52.3486 28.1917 63.0926 19.75 79.0944 17.0122C86.4094 15.6433 96.9249 13.1336 102.64 11.3083C120.47 5.37634 126.414 4.00743 138.301 3.77927C147.445 3.55112 151.559 4.92004 158.875 9.93942Z" fill="#FFAE52"/>
<path d="M87.5323 23.2567C74.9581 27.8233 62.1553 33.3034 58.9546 35.5867C55.7539 37.87 46.8377 49.2867 38.8359 61.16C30.8341 73.0334 22.6038 84.6783 20.3175 87.19C18.0313 89.7017 15.0592 94.725 13.4589 98.6067C9.57233 108.653 13.9161 142.903 21.0034 160.257C24.2041 167.792 27.4048 178.523 28.3193 184.003C29.691 192.452 32.6631 196.79 47.0663 211.86C58.0401 223.505 68.5567 231.953 76.3299 235.835L88.904 242L128.227 239.717C162.977 237.89 169.379 236.977 183.553 231.268C192.47 227.615 202.3 222.135 205.501 218.71C210.988 213.23 221.276 194.507 231.335 171.673C237.051 158.887 242.309 126.007 240.709 114.818C238.88 103.858 219.676 57.2784 214.646 50.885C209.388 44.72 196.813 37.185 182.41 31.705C175.552 29.1934 164.121 24.3984 157.262 21.2017C138.286 12.2967 117.253 12.9817 87.5323 23.2567ZM150.403 24.17C154.747 26.4534 162.52 29.65 167.55 31.2484C172.58 32.6184 183.553 37.185 192.012 40.8383C208.93 48.6017 206.644 45.405 224.934 86.0484C233.622 105 233.85 106.142 233.393 130.117C233.164 157.745 232.478 159.572 214.646 193.137L201.843 216.883L184.697 224.875C168.464 232.41 165.721 233.095 133.257 234.922C85.2461 237.433 79.9878 235.835 55.2967 210.262C40.2076 194.963 36.0924 189.027 34.0348 180.578C32.4345 174.642 28.7765 163.682 25.5758 156.147C21.6893 147.242 19.4031 136.282 18.4886 123.952C16.8882 102.488 18.4886 98.3783 40.6649 65.4984C55.9825 42.665 58.2687 40.61 74.9581 33.5317C107.422 19.8317 135.543 16.1784 150.403 24.17Z" fill="#FFAE52"/>
<path d="M103.56 36.7709C94.8677 38.6015 84.3459 40.6609 80.2286 41.3474C62.8447 44.3221 34.0239 80.7052 25.7894 109.766C21.2147 125.555 21.9009 134.708 30.5928 161.251C36.0825 177.956 38.8273 182.532 53.4665 199.236C66.9619 214.11 73.1378 219.373 84.5746 224.636C105.847 234.018 120.257 234.475 156.169 225.78C172.638 221.89 188.192 218 191.166 217.313C194.139 216.856 196.884 214.567 197.799 212.279C198.485 210.22 205.347 195.804 212.896 180.244C226.162 153.243 226.849 150.954 227.763 132.191C228.45 114.114 227.992 110.681 221.588 94.6635C217.699 85.0529 214.497 76.1287 214.497 74.9846C214.497 71.5522 187.277 47.5257 175.612 40.6609C166.691 35.1692 162.574 34.4827 142.445 34.025C129.864 33.7962 112.48 35.1692 103.56 36.7709ZM174.239 47.068C181.33 51.4157 192.081 60.111 198.257 66.5181C207.635 76.1287 210.608 81.3917 216.555 99.4688C223.189 118.69 223.646 122.58 222.274 136.996C220.901 150.268 218.385 157.59 208.55 177.04C201.688 190.312 196.198 202.211 196.198 203.813C196.198 209.533 187.506 213.423 160.744 220.059C108.363 232.873 88.4631 228.526 61.4722 198.321C43.6308 178.413 41.1147 173.837 33.7952 149.124C27.1618 126.012 28.5342 113.427 39.971 90.7735C49.3492 72.6964 59.8711 59.1957 70.3929 51.6445C79.3137 45.2374 116.598 38.6015 141.759 39.0592C159.829 39.288 162.574 39.9745 174.239 47.068Z" fill="#FFAE52"/>
<path d="M108.615 49.0609C104.963 49.9749 97.203 52.9452 91.4968 55.6871C85.7907 58.2005 79.3997 60.4854 77.1173 60.4854C70.4981 60.4854 50.6406 82.1918 44.4779 95.9011C40.1412 106.183 39 112.352 39 128.575C39 146.626 39.6847 150.053 45.6192 161.249C49.2711 168.103 54.9773 178.842 58.1728 185.24C65.4767 199.406 71.1828 204.89 85.7907 211.745C96.0618 216.543 100.398 217 130.299 217C159.743 217 164.308 216.315 172.753 211.973C191.013 202.377 201.512 183.641 215.207 136.801L220 120.806L212.468 102.07C204.936 83.7912 189.871 63.2272 180.285 58.2005C175.035 55.2301 129.386 46.776 121.397 47.0045C118.202 47.233 112.496 48.147 108.615 49.0609ZM146.733 55.4586C159.971 57.972 173.666 61.3993 176.633 63.4557C192.839 73.9662 214.066 113.495 211.327 127.889C208.588 141.599 195.578 175.187 188.73 186.84C178.459 203.748 163.851 210.831 134.864 212.887C98.8008 215.172 76.889 206.033 66.3897 184.783C63.1942 178.385 58.401 170.16 55.8903 166.504C53.1513 162.848 49.7276 155.765 48.1299 150.967C44.2497 138.628 46.3039 109.61 52.2383 96.3581C57.0315 85.6191 74.1501 65.0551 78.715 65.0551C80.0845 65.0551 88.5296 61.8563 97.203 58.2005C116.376 50.2034 116.148 50.2034 146.733 55.4586Z" fill="#FFAE52"/>
<path d="M122.865 61.2743C116.007 62.4115 103.434 65.368 95.205 67.8698C80.8033 72.1909 78.9745 73.5555 68.0018 87.2013C53.3716 105.851 52 109.717 52 131.323C52 146.788 52.9144 150.882 59.5437 163.618C68.6876 181.585 80.3461 192.956 98.1767 201.826C110.978 208.194 113.264 208.649 129.495 207.512C149.611 205.92 165.842 201.371 174.3 194.776C180.929 189.772 192.816 167.257 200.131 146.333C205.846 130.413 205.16 112.446 198.531 99.9374C192.359 87.8836 176.129 75.375 154.869 66.7326C144.125 62.4115 135.667 59 135.438 59C135.438 59.2274 129.723 60.1372 122.865 61.2743ZM142.296 67.6423C142.982 68.7795 149.383 71.5087 156.469 73.5555C166.527 76.5121 172.014 80.151 182.301 90.1579C199.903 107.897 202.646 118.132 196.017 142.467C190.302 163.163 178.872 185.224 170.871 191.137C161.956 197.277 137.496 202.736 121.722 201.599C110.521 200.916 104.806 198.869 92.2332 191.819C78.7459 183.859 75.5456 180.675 67.316 166.802C58.1721 151.337 57.9435 150.199 57.7149 130.413V109.944L69.8306 93.5694L81.9463 77.4218L100.691 72.4184C110.978 69.6892 120.579 67.1875 121.722 66.7326C126.523 65.1406 140.925 65.5955 142.296 67.6423Z" fill="#FFAE52"/>
<path d="M113.727 77.5454C84.2353 88.7261 78.7485 92.8332 70.2896 109.946C60.6876 129.113 60.6876 140.066 69.6037 156.494C73.2616 163.112 80.5774 173.608 86.0642 179.768C98.8668 193.915 107.554 196.425 137.961 194.372C158.536 193.003 161.28 192.318 167.224 186.614C174.539 179.768 181.169 166.078 190.543 139.381C198.773 115.423 196.944 110.631 173.625 92.8332C155.793 79.1427 140.018 69.5593 135.674 70.0156C134.531 70.0156 124.472 73.4383 113.727 77.5454ZM158.536 88.4979C184.141 105.839 189.4 111.087 189.4 120.214C189.4 131.851 173.396 172.01 165.395 180.453C158.765 187.526 157.622 187.755 135.217 189.352C114.641 190.721 110.755 190.493 102.982 186.386C94.2945 182.05 79.4343 164.709 72.1185 150.334C62.288 131.623 73.033 102.873 94.0659 92.1487C110.984 83.478 128.587 76.8609 134.76 76.6327C138.189 76.6327 148.02 81.6526 158.536 88.4979Z" fill="#FFAE52"/>
<path d="M109.381 93.0684C95.4806 103.101 80.2126 117.922 76.3386 125.446C73.1483 131.374 73.1483 133.198 76.7944 144.599C82.2635 161.928 92.9739 172.416 113.711 180.625C129.435 186.781 131.258 187.009 143.108 184.501C150.172 183.133 157.692 180.169 159.971 178.117C169.086 169.908 184.582 119.062 180.252 111.309C179.113 109.029 170.453 102.417 161.11 96.4885C146.526 87.3681 142.652 86 131.942 86C121.687 86 117.585 87.1401 109.381 93.0684ZM160.882 101.961L176.151 111.993L175.239 123.85C173.872 139.583 162.25 170.136 155.869 174.24C153.135 176.065 145.614 178.117 138.778 178.801C128.295 179.713 124.422 178.801 109.381 171.96C93.2018 164.436 91.6067 163.068 85.9096 151.895C82.7193 145.283 79.9847 137.303 79.9847 134.11C79.9847 126.358 89.1 115.185 106.875 101.733C121.459 90.5602 122.598 90.1042 133.993 91.0163C142.88 91.9283 149.261 94.2084 160.882 101.961Z" fill="#FFAE52"/>
<path d="M116.505 100.004C95.8309 110.237 82.6542 131.158 86.7435 146.848C88.7882 154.353 104.464 166.632 116.05 170.043C133.771 174.819 154.445 170.498 159.67 160.947C160.806 158.901 163.078 148.213 164.441 137.525C168.076 113.648 166.031 108.873 151.037 101.596C136.043 94.5463 128.318 94.3189 116.505 100.004ZM142.404 103.87C162.169 111.374 165.35 120.015 158.08 145.711C153.536 161.857 146.039 167.769 130.136 167.769C106.963 167.769 88.1066 149.805 93.559 132.977C96.2853 124.563 111.507 108.873 122.184 103.415C130.817 98.8669 129.227 98.8669 142.404 103.87Z" fill="#FFAE52"/>
<path d="M116.757 119.671C104.339 125.931 99.2793 137.294 103.419 148.656C107.098 157.931 131.015 162.337 143.434 156.076C156.082 149.815 160.222 129.41 151.023 119.207C145.963 113.41 128.946 113.642 116.757 119.671ZM151.253 127.091C154.932 137.526 148.263 148.888 136.765 152.134C121.127 156.308 108.938 151.439 108.938 140.772C108.938 128.482 122.276 119.439 138.834 120.366C147.803 120.83 149.413 121.757 151.253 127.091Z" fill="#FFAE52"/>
<path d="M123.619 128.195C117.824 132.341 117.601 134.414 122.282 139.251C127.631 144.78 137.885 144.089 139.445 137.869C142.343 126.582 133.427 121.054 123.619 128.195ZM136.547 133.723C136.547 137.178 134.987 138.33 131.198 138.33C125.179 138.33 122.059 135.105 124.288 131.419C124.956 130.037 128.077 129.116 131.198 129.116C134.987 129.116 136.547 130.268 136.547 133.723Z" fill="#FFAE52"/>
</svg>
