<svg width="268" height="260" viewBox="0 0 268 260" fill="none" xmlns="http://www.w3.org/2000/svg">
<path d="M122.658 16.2947C124.417 35.9842 125.955 43 128.813 43C130.132 43 130.352 35.7579 129.472 24.2158C127.714 2.48947 127.274 0 123.757 0C121.779 0 121.559 4.52631 122.658 16.2947Z" fill="#AAFF85"/>
<path d="M136.556 3.58532C134.189 5.8807 134.663 41 137.03 41C140.58 41 142 34.3434 142 17.8167C142 3.12624 140.58 -0.546368 136.556 3.58532Z" fill="#AAFF85"/>
<path d="M152.309 4.89873C150.458 10.7551 147.166 39.361 148.195 40.4872C150.458 42.9649 152.721 36.4328 154.778 21.5668C156.218 11.8813 156.424 5.12397 155.189 3.77251C153.955 2.42105 152.927 2.87154 152.309 4.89873Z" fill="#AAFF85"/>
<path d="M108 8.51836C108 14.0222 113.655 38.7897 115.177 40.395C115.83 41.3123 117.352 41.083 118.44 40.395C121.05 38.7897 113.872 6.22509 110.61 5.07845C109.087 4.61979 108 6.22509 108 8.51836Z" fill="#AAFF85"/>
<path d="M92 8.57306C92 12.1686 104.035 46.3264 105.851 48.3489C110.62 53.5175 109.939 46.5511 104.035 27.4497C100.402 15.7642 96.5414 7 94.9519 7C93.3624 7 92 7.67417 92 8.57306Z" fill="#AAFF85"/>
<path d="M166.016 9.71873C157.9 32.3863 156.096 41 159.929 41C161.507 41 165.34 30.3462 170.75 10.8521C172.103 6.54527 167.594 5.41189 166.016 9.71873Z" fill="#AAFF85"/>
<path d="M172.753 22.8864C169.655 31.3891 167 40.1154 167 41.9054C167 46.3805 170.762 45.933 172.089 41.0104C172.753 38.9967 175.851 30.494 178.948 21.9914C183.374 10.58 184.038 7 181.604 7C179.833 7 176.072 13.7126 172.753 22.8864Z" fill="#AAFF85"/>
<path d="M81.3719 15.2735C78.314 18.4101 95.0147 53.1366 98.543 50.8962C99.7191 50.224 98.543 44.623 95.9556 37.9017C93.1329 31.4045 89.8399 23.5631 88.6637 19.9784C86.3115 14.1533 84.1945 12.585 81.3719 15.2735Z" fill="#AAFF85"/>
<path d="M186.985 27.5601C176.581 46.7572 174.998 51.1517 179.069 49.7639C182.462 48.6075 198.972 21.0839 198.972 15.9955C199.424 9.28813 194.448 14.1452 186.985 27.5601Z" fill="#AAFF85"/>
<path d="M67 18.2778C67 22.6056 84.8999 57 87.1374 57C90.2699 57 90.2699 56.7722 80.6487 35.3611C75.7262 24.6556 70.8037 16 69.4612 16C68.1187 16 67 17.1389 67 18.2778Z" fill="#AAFF85"/>
<path d="M55 27.7895C55 31.4281 72.1985 60.7649 75.5929 63.0391C81.2503 66.4503 79.8925 60.7649 71.2933 46.2102C61.5626 29.6088 55 22.3315 55 27.7895Z" fill="#AAFF85"/>
<path d="M198.616 38.7667C184.812 56.5958 184.352 64.0434 197.926 48.6968C211.27 34.0274 216.791 25 212.65 25C210.81 25 204.598 31.3192 198.616 38.7667Z" fill="#AAFF85"/>
<path d="M43.066 36.1574C41.726 37.9669 61.1565 65.1089 67.6333 70.3111C74.5568 76.1919 70.3134 66.0136 59.3698 50.6331C49.5429 36.6097 45.0761 32.7646 43.066 36.1574Z" fill="#AAFF85"/>
<path d="M207.753 48.7849C197.372 60.4912 194.664 66 198.952 66C201.208 66 224 40.5216 224 37.7672C224 33.1765 217.23 37.7672 207.753 48.7849Z" fill="#AAFF85"/>
<path d="M219.592 56.0435C207.548 67.4631 203.003 75 208.003 75C210.275 75 238 46.9079 238 44.624C238 40.5129 232.091 44.1672 219.592 56.0435Z" fill="#AAFF85"/>
<path d="M32 50.6315C32 53.5613 55.1315 77 58.1386 77C62.7649 77 58.6012 70.0135 47.4981 59.421C35.0071 47.2509 32 45.6733 32 50.6315Z" fill="#AAFF85"/>
<path d="M149.946 52.6886C147.663 59.5552 144.238 78.3239 145.151 79.2394C148.12 82.2149 150.86 76.2639 152.458 64.8196C153.828 52.9175 152.458 45.8221 149.946 52.6886Z" fill="#AAFF85"/>
<path d="M134.485 53.685C132.118 55.9486 132.764 77 135.131 77C136.422 77 137.283 75.1891 137.283 72.9255C137.283 70.8883 137.928 65.2293 138.574 60.4758C139.865 52.7796 138.143 49.8369 134.485 53.685Z" fill="#AAFF85"/>
<path d="M119.219 55.9751C118.164 63.7211 121.118 77 123.861 77C125.127 77 125.338 73.9016 124.494 68.59C123.017 59.9588 119.852 52.2128 119.219 55.9751Z" fill="#AAFF85"/>
<path d="M161.768 66.925C155.148 80.425 154.707 82 158.017 82C159.341 82 162.65 76.375 165.739 69.4C171.917 55.225 171.917 55 169.49 55C168.608 55 165.077 60.4 161.768 66.925Z" fill="#AAFF85"/>
<path d="M105 59.8069C105 65.0254 110.232 80 112.28 80C114.782 80 114.555 76.1429 111.597 65.706C109.55 57.9918 105 53.9078 105 59.8069Z" fill="#AAFF85"/>
<path d="M23 61.6615C23 64.6622 42.7439 80.5887 49.8608 83.3585C56.7482 86.1283 51.9271 79.6654 39.0706 69.0477C25.755 58.1992 23 56.8143 23 61.6615Z" fill="#AAFF85"/>
<path d="M92.7804 64.239C93.4853 67.2147 96.54 73.6236 99.1246 78.6593C105.704 91.2484 107.349 83.466 101.004 69.5036C96.305 58.9745 89.7258 54.8545 92.7804 64.239Z" fill="#AAFF85"/>
<path d="M224.694 71.4216C215.695 77.1285 210.849 81.4658 212.234 82.8355C214.31 84.89 245 67.0842 245 63.6601C245 60.0076 239.001 62.2904 224.694 71.4216Z" fill="#AAFF85"/>
<path d="M174.361 75.2104C166.891 86.2631 165.307 91 168.702 91C170.739 91 185 69.3456 185 66.1877C185 61.4508 181.378 64.3832 174.361 75.2104Z" fill="#AAFF85"/>
<path d="M82 70.9169C82 74.8412 93.098 91 95.8725 91C99.3407 91 98.8783 89.3841 92.1732 78.073C86.393 68.1469 82 65.1459 82 70.9169Z" fill="#AAFF85"/>
<path d="M16 74.9173C16 77.9037 36.5749 88.9304 44.8974 90.5384C54.3757 92.3762 50.6769 88.7006 33.5696 79.9712C19.4677 72.3904 16 71.4715 16 74.9173Z" fill="#AAFF85"/>
<path d="M72.1167 75.2655C70.5183 77.5164 85.8166 98 89.0132 98C92.4382 98 91.7532 96.1992 84.4466 85.6198C76.6833 74.5902 73.9433 72.1141 72.1167 75.2655Z" fill="#AAFF85"/>
<path d="M184.396 86.6065C176.226 97.2649 174.592 102.481 180.661 98.8523C184.162 96.8114 197 79.5765 197 76.8552C197 72.5465 192.799 75.7213 184.396 86.6065Z" fill="#AAFF85"/>
<path d="M230.529 83.1613C218.329 88.4239 213.495 93 219.71 93C223.624 93 245.722 83.3901 249.405 79.958C254.929 74.9243 245.492 76.526 230.529 83.1613Z" fill="#AAFF85"/>
<path d="M126 89.1581C126 93.6505 127.013 98.1429 128.025 98.8168C130.658 100.614 130.658 88.7089 128.025 84.2164C126.608 81.7456 126 82.8687 126 89.1581Z" fill="#AAFF85"/>
<path d="M137 92.5781C137 100.455 137.759 102.481 139.532 100.005C142.823 95.5039 142.823 82 139.532 82C138.266 82 137 86.7264 137 92.5781Z" fill="#AAFF85"/>
<path d="M8.40705 86.25C6.78534 88.7963 9.33374 90.4166 28.5626 98.0555C35.9761 100.833 42.6946 102.685 43.3896 101.759C45.7063 99.4443 41.5362 96.4351 29.0259 91.574C22.7708 89.0278 15.8206 86.25 13.7355 85.5556C11.4188 84.6296 9.10206 84.8611 8.40705 86.25Z" fill="#AAFF85"/>
<path d="M64 85.8292C64 88.8015 82.2301 105.493 83.8454 103.892C85.6915 102.063 70.4613 84 66.9999 84C65.3846 84 64 84.9146 64 85.8292Z" fill="#AAFF85"/>
<path d="M114 88.9015C114 95.0141 117.066 102 119.62 102C121.153 102 121.409 99.5986 120.387 95.8874C118.599 89.1198 114 84.0987 114 88.9015Z" fill="#AAFF85"/>
<path d="M146.517 100.987C136.849 115.648 135.008 121 138.921 121C140.072 121 142.144 117.509 143.985 113.321C145.596 109.364 147.668 105.408 148.589 104.71C150.891 102.849 158.026 88.1878 156.875 87.0243C156.415 86.5589 151.581 92.842 146.517 100.987Z" fill="#AAFF85"/>
<path d="M103 90.159C103 94.3316 110.812 108.24 111.759 105.69C113.18 101.981 107.971 89 105.131 89C103.947 89 103 89.4636 103 90.159Z" fill="#AAFF85"/>
<path d="M195.555 99.4075C189.626 104.831 185.234 110.028 186.112 110.706C187.869 112.513 197.751 105.734 204.997 97.5999C213.781 87.8836 206.973 89.2394 195.555 99.4075Z" fill="#AAFF85"/>
<path d="M237.737 93.5991C230.865 95.8731 223.764 98.6019 221.931 99.0567C219.869 99.9663 219.411 101.103 220.786 102.468C223.535 105.196 250.794 96.7827 256.063 92.0073C258.812 89.2784 258.812 88.8236 254.918 89.051C252.398 89.051 244.609 91.0977 237.737 93.5991Z" fill="#AAFF85"/>
<path d="M54.0979 95.8115C52.7132 97.7656 66.3294 107.536 74.8684 110.576C79.9457 112.313 78.561 108.405 72.7914 104.496C59.6367 95.5944 55.4826 93.6403 54.0979 95.8115Z" fill="#AAFF85"/>
<path d="M95.3156 97.1355C93.4797 99.2258 100.135 112 102.889 112C105.872 112 105.872 110.606 101.741 102.71C97.8399 95.2774 97.6104 95.0452 95.3156 97.1355Z" fill="#AAFF85"/>
<path d="M159.16 100.078C152.475 106.875 154.385 111.18 161.07 105.063C167.039 99.6251 168.71 96 165.129 96C163.935 96 161.309 97.8126 159.16 100.078Z" fill="#AAFF85"/>
<path d="M4.11197 102.19C3.19106 103.627 8.02583 106.262 15.8535 108.418C23.2208 110.574 31.0485 112.97 33.581 113.688C36.3437 114.407 37.4949 113.928 36.8042 111.772C34.9624 106.262 6.64446 97.8778 4.11197 102.19Z" fill="#AAFF85"/>
<path d="M131.734 104.32C128.97 106.492 129.724 118 132.488 118C133.995 118 135 114.526 135 110.4C135 102.583 134.498 101.715 131.734 104.32Z" fill="#AAFF85"/>
<path d="M166.561 109.455C161.07 113.818 159.697 115.782 162.214 116C166.561 116 178 107.928 178 104.874C178 101.383 174.568 102.692 166.561 109.455Z" fill="#AAFF85"/>
<path d="M119 107.881C119 109.433 120.633 112.758 122.5 115.196C125.3 118.742 125.767 118.964 126 115.639C126 110.541 123.433 105 121.1 105C119.933 105 119 106.33 119 107.881Z" fill="#AAFF85"/>
<path d="M236.431 107.465C225.304 109.566 219.627 114 228.029 114C236.431 114 263 108.399 263 106.765C263 104.198 252.1 104.431 236.431 107.465Z" fill="#AAFF85"/>
<path d="M48 108.899C48 110.959 56.6798 114.852 66.9586 117.37C76.5521 119.66 74.2679 115.31 63.3039 110.731C52.5683 106.38 48 105.923 48 108.899Z" fill="#AAFF85"/>
<path d="M87 108.813C87 112.03 95.9628 119.381 97.8013 117.773C98.4907 116.854 97.3417 114.097 95.0435 111.57C90.677 106.746 87 105.597 87 108.813Z" fill="#AAFF85"/>
<path d="M201.981 110.765C188.049 114.96 185.536 119.854 198.327 117.29C208.605 115.426 215 112.163 215 109.133C215 107.735 214.772 106.803 214.543 107.036C214.086 107.036 208.376 108.9 201.981 110.765Z" fill="#AAFF85"/>
<path d="M108 110.668C108.216 114.241 116.429 124.486 117.726 122.818C119.455 120.912 112.539 109 109.945 109C108.865 109 108 109.715 108 110.668Z" fill="#AAFF85"/>
<path d="M3 114.629C3 118.697 26.0575 125.159 30.395 122.287C34.5043 119.654 30.6233 116.783 19.8936 115.107C13.958 114.39 7.79413 112.954 6.19609 112.236C4.36975 111.518 3 112.475 3 114.629Z" fill="#AAFF85"/>
<path d="M147.078 119.39C143.376 122.386 141.293 125.842 142.219 126.764C143.144 127.686 146.846 125.842 150.086 122.386C158.184 114.552 155.639 112.017 147.078 119.39Z" fill="#AAFF85"/>
<path d="M245.093 117.331C227.634 120.417 223.553 122.316 229.675 124.689C233.303 126.113 264.366 122.316 266.634 119.942C267.994 118.518 265.273 113.771 263.233 114.009C262.326 114.246 254.163 115.67 245.093 117.331Z" fill="#AAFF85"/>
<path d="M44 120.141C44 122.676 54.7416 125 66.3974 125C78.9674 125 72.3396 121.197 57.0271 119.507C48.7994 118.662 44 118.873 44 120.141Z" fill="#AAFF85"/>
<path d="M82 119.961C82 122.71 87.9139 125 94.5375 125C98.5589 124.771 99.032 124.542 96.1933 122.939C89.8063 119.274 82 117.9 82 119.961Z" fill="#AAFF85"/>
<path d="M171.11 120.247C168.827 120.663 167 122.118 167 123.157C167 126.066 177.047 125.443 182.07 121.91C186.18 119 186.18 119 180.7 119C177.504 119.208 173.165 119.624 171.11 120.247Z" fill="#AAFF85"/>
<path d="M205.819 123.331C193.05 125.662 190.362 126.828 192.826 129.392C195.29 131.723 219.708 126.828 220.828 123.564C221.276 122.166 220.828 121 219.708 121C218.812 121.233 212.54 122.166 205.819 123.331Z" fill="#AAFF85"/>
<path d="M108.488 126.565C113.69 130.606 117 131.081 117 127.992C117 125.615 111.325 123 106.833 123C105.178 123 106.124 124.664 108.488 126.565Z" fill="#AAFF85"/>
<path d="M131.586 126.888C130.435 129.599 129.515 130.051 127.444 128.017C123.531 124.176 121 124.628 122.381 128.695C124.222 132.988 133.887 133.214 135.498 128.695C136.419 126.888 135.958 124.854 135.038 124.176C133.887 123.499 132.276 124.854 131.586 126.888Z" fill="#AAFF85"/>
<path d="M0 127.653C0 130.909 8.92032 132.646 21.9577 131.778C39.1122 130.692 35.4525 126.785 16.697 126.134C6.40433 125.7 0 126.351 0 127.653Z" fill="#AAFF85"/>
<path d="M151.368 127.985C143.203 131.028 144.836 134.724 153.001 132.115C156.967 130.811 160 128.854 160 127.767C160 125.376 158.134 125.376 151.368 127.985Z" fill="#AAFF85"/>
<path d="M80.2659 130.158C80.7259 131.905 84.8661 133.433 89.2363 133.87C98.4367 134.743 96.1366 131.031 85.7861 128.63C80.7259 127.538 79.3458 127.756 80.2659 130.158Z" fill="#AAFF85"/>
<path d="M44 132C44 133.2 50.0787 134 57.7334 134C66.0635 134 70.7914 133.2 69.8909 132C69.2155 130.8 62.9116 130 56.1575 130C49.4033 130 44 130.8 44 132Z" fill="#AAFF85"/>
<path d="M102.486 131.526C101.838 132.24 101.838 133.906 102.486 134.858C104 137.714 112 137.714 112 134.858C112 132.478 104.216 129.86 102.486 131.526Z" fill="#AAFF85"/>
<path d="M243.946 131.196C233.02 131.889 228.371 133.043 229.068 134.89C229.533 136.737 235.345 137.429 247.2 136.737C256.732 136.506 265.101 135.582 266.263 134.89C269.517 133.043 267.89 129.58 263.938 130.042C261.614 130.273 252.547 130.734 243.946 131.196Z" fill="#AAFF85"/>
<path d="M136.17 134.5C135.504 135.75 136.836 137 139.5 137C142.164 137 143.496 135.75 142.83 134.5C142.164 133 140.61 132 139.5 132C138.39 132 136.836 133 136.17 134.5Z" fill="#AAFF85"/>
<path d="M169 134.5C169 135.75 171.562 137 174.589 137C177.849 137 181.11 135.75 181.808 134.5C182.74 133 180.178 132 176.219 132C172.26 132 169 133 169 134.5Z" fill="#AAFF85"/>
<path d="M117 136.5C117 137.75 119.013 139 121.697 139C124.157 139 125.499 137.75 124.828 136.5C124.157 135 121.92 134 120.131 134C118.342 134 117 135 117 136.5Z" fill="#AAFF85"/>
<path d="M192 137.5C192 140.3 194.969 141 205.475 141C218.95 141 225.117 138.2 218.037 135.4C215.981 134.7 209.358 134 203.191 134C194.741 134 192 134.933 192 137.5Z" fill="#AAFF85"/>
<path d="M13.183 138.817C8.18338 139.544 3.86551 141.724 3.18374 143.662C2.27472 146.327 4.54728 146.57 14.3193 145.116C27.7274 143.178 30 142.209 30 138.817C30 136.394 27.2729 136.394 13.183 138.817Z" fill="#AAFF85"/>
<path d="M146 139C146 140 149.657 141 154 141C158.343 141 162 140 162 139C162 137.8 158.343 137 154 137C149.657 137 146 137.8 146 139Z" fill="#AAFF85"/>
<path d="M55.6478 141.14C45.5246 141.542 41.3833 142.549 42.0735 144.16C42.7638 145.77 47.5953 146.374 57.7185 145.77C65.771 145.368 72.9033 144.764 73.3634 144.361C76.3544 141.945 68.5319 140.535 55.6478 141.14Z" fill="#AAFF85"/>
<path d="M81.1743 141.5C81.8586 142.75 85.508 144 89.3855 144C93.0349 144 96 142.75 96 141.5C96 140 92.3506 139 87.7889 139C82.999 139 80.262 140 81.1743 141.5Z" fill="#AAFF85"/>
<path d="M127.571 140.245C126.673 140.983 126 143.444 126 145.659C126.224 148.858 126.673 148.858 128.469 145.167C130.938 140.491 130.264 137.046 127.571 140.245Z" fill="#AAFF85"/>
<path d="M135.249 141.5C135.749 143.25 137.75 145.251 139.5 145.751C141.501 146.501 142.501 145.501 141.751 143.5C141.251 141.75 139.25 139.749 137.5 139.249C135.499 138.499 134.499 139.499 135.249 141.5Z" fill="#AAFF85"/>
<path d="M167 140.534C167 141.795 168.6 143.813 170.657 144.57C176.143 146.841 183 146.336 183 143.561C183 142.048 181.629 141.039 180.257 141.039C178.657 141.039 175 140.282 172.257 139.525C169.286 138.516 167 139.02 167 140.534Z" fill="#AAFF85"/>
<path d="M101.809 143.052C99.1003 144.301 98.1973 145.551 99.7776 146.55C102.261 148.3 114 144.551 114 142.052C114 140.303 107.002 140.802 101.809 143.052Z" fill="#AAFF85"/>
<path d="M145.177 146.403C143.598 148.921 153.071 160.821 154.876 158.762C155.553 158.075 153.748 155.1 150.816 151.896L145.628 146.403L154.425 147.547C160.966 148.463 162.319 148.234 159.838 146.403C155.553 143.199 146.981 143.199 145.177 146.403Z" fill="#AAFF85"/>
<path d="M111.422 149.347C107.752 151.179 105 153.698 105 154.844C105 158.508 107.982 157.592 115.321 151.408C122.889 145.225 121.054 144.08 111.422 149.347Z" fill="#AAFF85"/>
<path d="M192 147.461C192 150.139 199.543 152.817 216.686 156.469C227.201 158.66 226.058 153.548 215.315 150.626C198.4 145.757 192 144.783 192 147.461Z" fill="#AAFF85"/>
<path d="M231 148.058C231 150.882 239.51 153 252.39 153C264.58 153 266.88 149.706 256.07 147.352C245.49 145.235 231 145.705 231 148.058Z" fill="#AAFF85"/>
<path d="M22.5474 151.261C7.0366 154.037 2.9308 155.887 5.8961 158.663C7.4928 160.282 39.1987 155.656 41.2516 153.574C44.6731 149.873 36.0053 148.948 22.5474 151.261Z" fill="#AAFF85"/>
<path d="M83.606 150.223C81.2516 154.422 86.1959 155.41 90.9047 151.705C95.1427 148.247 95.1427 148.247 90.1984 148C87.3731 148 84.5478 148.988 83.606 150.223Z" fill="#AAFF85"/>
<path d="M135 150.14C135 151.569 137.411 155.618 140.479 159.191C146.616 166.813 148.15 162.049 142.452 153.236C138.945 147.758 135 146.329 135 150.14Z" fill="#AAFF85"/>
<path d="M167 150.233C167 153.549 175.729 157.813 180.324 156.866C183.31 156.155 182.391 154.971 176.878 151.891C168.378 147.154 167 146.917 167 150.233Z" fill="#AAFF85"/>
<path d="M117.421 156.736C114.193 163.063 114.193 164 117.421 164C119.266 164 121.342 161.422 122.264 158.142C124.34 149.238 121.803 148.535 117.421 156.736Z" fill="#AAFF85"/>
<path d="M128.039 155.281C128.039 158.402 129.06 162.963 130.335 165.603C132.121 169.924 132.377 170.164 134.163 166.084C136.459 161.042 133.652 150 130.335 150C128.805 150 127.784 152.401 128.039 155.281Z" fill="#AAFF85"/>
<path d="M56.8083 155.465C48.2856 157.799 44.8304 162 51.5104 162C58.8814 162 78 156.865 78 154.765C78 152.198 68.0952 152.431 56.8083 155.465Z" fill="#AAFF85"/>
<path d="M90.5897 159.058C88.3442 161.311 87.446 164.015 88.3442 164.691C89.9161 166.494 98 159.959 98 156.804C98 153.65 94.4071 154.776 90.5897 159.058Z" fill="#AAFF85"/>
<path d="M162 156.768C162 159.927 173.891 169.403 175.833 167.824C176.561 166.921 174.862 163.763 171.707 160.604C165.883 154.963 162 153.384 162 156.768Z" fill="#AAFF85"/>
<path d="M192 157.169C192 159.536 208.267 169 212.62 169C217.66 169 214.453 165.214 205.288 160.009C194.52 154.33 192 153.62 192 157.169Z" fill="#AAFF85"/>
<path d="M229.546 160.038C227.916 162.542 229.08 162.997 245.143 166.638C259.11 169.824 263.999 169.824 262.835 166.411C262.369 165.045 256.084 162.542 249.1 160.949C233.503 157.307 231.408 157.08 229.546 160.038Z" fill="#AAFF85"/>
<path d="M22.7558 167.167C13.7194 169.933 7 173.16 7 175.004C7 176.617 7.92681 178 8.85363 178C13.7194 178 41.7555 167.398 41.9872 165.324C42.2189 161.866 39.4385 162.097 22.7558 167.167Z" fill="#AAFF85"/>
<path d="M64.5919 167.692C59.0726 170.868 55.3931 174.497 56.083 175.632C57.4628 178.127 80 167.238 80 164.062C80 160.432 74.9406 161.566 64.5919 167.692Z" fill="#AAFF85"/>
<path d="M98.6126 166.456C94.2784 173.33 95.6471 176.877 100.438 171.112C102.947 168.23 105 165.126 105 164.017C105 160.469 101.578 161.8 98.6126 166.456Z" fill="#AAFF85"/>
<path d="M160 164.323C160 168.917 166.159 175.916 167.818 173.51C168.528 172.198 167.107 168.917 164.501 166.292C161.421 162.573 160 162.136 160 164.323Z" fill="#AAFF85"/>
<path d="M189.798 166.59C193.951 173.016 207.333 181.048 208.948 178.524C210.101 176.688 191.874 162 188.413 162C187.49 162 188.183 164.065 189.798 166.59Z" fill="#AAFF85"/>
<path d="M107.496 172.08C106.166 175.649 105.723 178.981 106.166 179.457C107.939 181.361 111.263 178.029 112.592 173.032C114.365 165.655 109.933 164.703 107.496 172.08Z" fill="#AAFF85"/>
<path d="M118.719 170.284C117.645 171.204 117 174.655 117 177.875C117 182.016 117.645 182.937 119.363 181.096C120.653 179.716 121.297 176.265 120.867 173.505C120.653 170.744 119.578 169.364 118.719 170.284Z" fill="#AAFF85"/>
<path d="M154.572 173.797C156.481 179.903 157.435 180.994 159.343 179.249C161.49 177.505 157.912 169 155.288 169C153.857 169 153.618 171.181 154.572 173.797Z" fill="#AAFF85"/>
<path d="M224 171.188C224 172.299 229.625 175.857 236.375 178.969C251 185.194 251 185.194 251 181.415C251 179.858 245.6 176.301 239.075 173.633C225.575 168.075 224 167.853 224 171.188Z" fill="#AAFF85"/>
<path d="M72.616 178.643C63.568 186.298 61.944 189 66.352 189C69.368 189 87 175.266 87 172.79C87 168.962 80.968 171.439 72.616 178.643Z" fill="#AAFF85"/>
<path d="M128 178C128 181.733 129.25 185 130.5 185C132 185 133 181.733 133 178C133 174.033 132 171 130.5 171C129.25 171 128 174.033 128 178Z" fill="#AAFF85"/>
<path d="M146 174.074C146 176.586 147.25 180.241 148.5 182.068C150.5 184.809 151 184.809 151 180.926C151 178.414 149.75 174.759 148.5 172.932C146.5 170.191 146 170.191 146 174.074Z" fill="#AAFF85"/>
<path d="M185 173.88C185 177.924 195.993 188.866 197.825 186.725C199.428 185.06 189.58 171.026 186.832 171.026C185.687 170.788 185 172.215 185 173.88Z" fill="#AAFF85"/>
<path d="M28.7822 180.102C15.9555 186.289 10.2292 192 16.6426 192C19.6203 192 51 175.581 51 174.154C51 171.298 42.0671 173.916 28.7822 180.102Z" fill="#AAFF85"/>
<path d="M140 179C140 182.36 140.893 185 142.008 185C142.901 185 143.347 182.36 142.678 179C142.231 175.64 141.339 173 140.893 173C140.446 173 140 175.64 140 179Z" fill="#AAFF85"/>
<path d="M176 178.57C176 181.922 187.244 196 189.997 196C193.669 196 192.292 191.531 185.867 183.486C179.213 175.665 176 173.878 176 178.57Z" fill="#AAFF85"/>
<path d="M83.9457 186.401C79.4812 191.188 77.0257 195.519 78.365 195.975C80.8205 196.659 96 182.982 96 179.791C96 175.916 91.5354 178.423 83.9457 186.401Z" fill="#AAFF85"/>
<path d="M217 179.709C217 181.972 240.573 196 244.27 196C250.048 196 246.581 192.38 234.564 185.14C222.084 177.899 217 176.316 217 179.709Z" fill="#AAFF85"/>
<path d="M167 182.502C167 185.911 180.388 205 182.884 205C186.741 205 185.38 200.455 178.346 190.001C171.538 180.457 167 177.275 167 182.502Z" fill="#AAFF85"/>
<path d="M39.5676 190.863C26.6631 198.615 21.2296 205 27.7951 205C31.6438 205 57 189.039 57 186.758C57 182.198 52.6985 183.11 39.5676 190.863Z" fill="#AAFF85"/>
<path d="M93.7206 194.075C86.953 203.677 85.1483 210 88.9833 210C91.0136 210 105 188.688 105 185.878C105 181.428 99.8115 185.175 93.7206 194.075Z" fill="#AAFF85"/>
<path d="M212.056 186.479C211.368 187.624 217.101 193.802 224.439 200.209C241.639 215.312 244.62 212.108 227.879 196.319C215.037 184.191 213.891 183.505 212.056 186.479Z" fill="#AAFF85"/>
<path d="M104.293 198.364C97.839 211.318 97.6165 212 101.845 212C103.403 212 106.741 207.227 108.967 201.318C111.415 195.182 113.64 189.727 113.863 188.818C114.308 187.682 113.64 187 112.305 187C110.97 187 107.409 192 104.293 198.364Z" fill="#AAFF85"/>
<path d="M160 188.136C160 191.545 172.087 212 173.947 212C177.201 212 176.969 210.864 170.46 198.364C167.206 192 163.487 187 162.324 187C160.93 187 160 187.455 160 188.136Z" fill="#AAFF85"/>
<path d="M152.363 190.849C150.24 194.018 158.023 217.108 160.381 214.844C162.504 212.807 158.73 193.792 155.664 190.849C154.485 189.717 153.07 189.717 152.363 190.849Z" fill="#AAFF85"/>
<path d="M115.987 204.052C110.795 219.515 110.795 223.835 115.279 219.287C120.471 214.057 126.607 192 122.831 192C121.179 192 118.111 197.457 115.987 204.052Z" fill="#AAFF85"/>
<path d="M129.745 205.484C128.199 217.913 129.083 223.24 132.176 220.133C132.839 219.467 133.943 212.808 134.606 205.484C136.374 187.505 131.734 187.505 129.745 205.484Z" fill="#AAFF85"/>
<path d="M46.1753 205.09C38.0527 212.415 34.6682 216.764 36.4733 217.908C39.1808 219.511 64 199.596 64 195.705C64 191.584 57.4568 195.018 46.1753 205.09Z" fill="#AAFF85"/>
<path d="M140.562 202.438C141.498 207.227 143.136 213.613 144.54 216.805C146.88 222.279 147.114 222.279 147.816 217.489C148.986 211.104 144.306 194 141.264 194C139.86 194 139.626 197.193 140.562 202.438Z" fill="#AAFF85"/>
<path d="M204 196.417C204 200.543 225.322 222.319 226.876 219.797C227.765 218.422 223.767 212.004 218.214 205.586C208.22 194.125 204 191.374 204 196.417Z" fill="#AAFF85"/>
<path d="M197 205.302C197 209.792 211.025 230 214.191 230C218.715 230 218.263 229.102 209.215 215.406C201.298 203.73 197 200.138 197 205.302Z" fill="#AAFF85"/>
<path d="M53.8406 216.288C39.2319 230.992 43.8696 233.979 59.4058 219.734C65.6667 213.761 71 208.017 71 207.098C71 202.273 64.2754 205.949 53.8406 216.288Z" fill="#AAFF85"/>
<path d="M67.739 222.392C55.1955 237.801 56.5394 244.372 69.307 230.096C79.8346 218.087 82.7465 212.648 80.0586 211.062C78.9386 210.382 73.5628 215.367 67.739 222.392Z" fill="#AAFF85"/>
<path d="M188 212.752C188 217.018 201.23 237 203.967 237C207.388 237 206.932 235.204 199.177 222.182C192.562 210.506 188 206.914 188 212.752Z" fill="#AAFF85"/>
<path d="M84.3212 222.567C75.7336 235.996 72.9484 242.016 74.341 243.405C76.4299 245.72 80.6076 241.321 87.3385 229.513C94.7656 216.547 95.4619 214 91.9805 214C90.82 214 87.3385 217.936 84.3212 222.567Z" fill="#AAFF85"/>
<path d="M179.246 219.275C179.902 221.095 182.087 227.923 184.054 234.295C187.989 246.356 190.612 250.225 192.797 246.811C194.546 243.625 184.492 218.365 181.213 217.227C179.246 216.544 178.59 217.454 179.246 219.275Z" fill="#AAFF85"/>
<path d="M92.1836 234.014C84.8575 248.836 84.1706 253.236 89.4363 249.993C92.8705 247.909 105.462 221.971 103.86 220.118C100.884 217.339 99.5098 218.96 92.1836 234.014Z" fill="#AAFF85"/>
<path d="M169 223.302C169 227.172 171.247 235.37 176.864 251.081C177.763 253.13 178.886 253.585 180.234 252.219C181.807 250.625 180.908 245.16 177.987 236.508C172.82 221.48 169 215.788 169 223.302Z" fill="#AAFF85"/>
<path d="M104.661 234.225C96.4618 253.47 95.7785 255.557 98.2839 256.948C100.334 258.34 114 231.211 114 225.646C114 219.618 108.761 224.487 104.661 234.225Z" fill="#AAFF85"/>
<path d="M160 228.961C160.245 236.866 163.669 253.142 165.87 255.002C169.539 258.489 170.029 252.677 167.093 240.121C163.669 224.776 160 218.964 160 228.961Z" fill="#AAFF85"/>
<path d="M117.589 238.332C114.384 250.596 114.155 258 116.902 258C118.963 258 124 240.414 124 232.778C124 224.448 120.566 227.457 117.589 238.332Z" fill="#AAFF85"/>
<path d="M140 240.981C140 253.507 142.593 262.388 145.402 259.428C147.347 257.606 144.106 228 141.945 228C140.864 228 140 233.921 140 240.981Z" fill="#AAFF85"/>
<path d="M149 231.039C149 237.779 154.516 258 156.354 258C158.652 258 158.652 255.908 155.665 241.963C153.367 230.806 149 223.601 149 231.039Z" fill="#AAFF85"/>
<path d="M128 245C128 253.538 129 260 130.5 260C132 260 133 253.538 133 245C133 236.462 132 230 130.5 230C129 230 128 236.462 128 245Z" fill="#AAFF85"/>
</svg>
