<svg width="219" height="221" viewBox="0 0 219 221" fill="none" xmlns="http://www.w3.org/2000/svg">
<path d="M110.581 1.54253C109.613 3.01701 109.855 5.47448 111.306 6.94897C112.758 8.42345 114.21 8.42345 115.419 6.45747C116.387 4.98299 116.145 2.52552 114.694 1.05103C113.242 -0.423452 111.79 -0.423452 110.581 1.54253Z" fill="#ADE9DE"/>
<path d="M133.456 1.94706C132.561 3.25253 133.009 5.21073 134.575 6.08104C138.379 8.25681 143.974 6.29861 142.855 3.03495C141.736 -0.446289 135.246 -1.09902 133.456 1.94706Z" fill="#ADE9DE"/>
<path d="M79.7111 7.47071C77.7232 9.77458 80.1529 13 83.9077 13C85.6747 13 87 11.3873 87 9.5442C87 6.08839 82.3616 4.70607 79.7111 7.47071Z" fill="#ADE9DE"/>
<path d="M159.435 7.86182C156.708 10.645 157.967 13 162.37 13C164.677 13 166.355 11.9295 165.936 10.4309C164.887 7.43364 161.322 5.935 159.435 7.86182Z" fill="#ADE9DE"/>
<path d="M57 16.5C57 19.1052 58.7081 20.4078 61.3922 19.8868C66.5164 18.8447 66.0283 14.1553 60.9041 13.1132C58.4641 12.5922 57 13.8948 57 16.5Z" fill="#ADE9DE"/>
<path d="M97.3773 17.3178C95.653 20.4645 100.179 27 104.059 27C108.154 27 107.938 18.286 103.628 16.3496C99.1015 14.4131 98.886 14.4131 97.3773 17.3178Z" fill="#ADE9DE"/>
<path d="M122.47 19.6734C120.42 23.1709 125.432 29 130.671 29C133.405 29 135 27.3678 135 24.3367C135 21.7719 134.089 19.6734 132.95 19.6734C131.811 19.6734 129.305 18.9739 127.482 18.2744C125.659 17.5749 123.381 18.2744 122.47 19.6734Z" fill="#ADE9DE"/>
<path d="M179.174 22.7639C180.178 26.538 184.799 27.2928 185 23.5187C185 22.0091 183.594 20.4994 181.585 20.2478C179.576 19.493 178.571 20.4994 179.174 22.7639Z" fill="#ADE9DE"/>
<path d="M78.2669 27.796C76.6636 29.5878 76.6636 31.8276 77.8088 33.8434C79.6411 36.7551 80.3282 36.7551 83.5346 33.6195C86.741 30.7077 86.741 29.8118 83.9927 27.572C81.4733 25.3323 80.0991 25.5562 78.2669 27.796Z" fill="#ADE9DE"/>
<path d="M37.2065 30.0154C37.4162 32.3593 38.8839 34 39.9323 34C43.0773 33.7656 42.4483 28.3746 39.3032 27.2027C37.4162 26.4995 36.5775 27.6714 37.2065 30.0154Z" fill="#ADE9DE"/>
<path d="M156.193 30.7868C157.018 35.7767 163 36.7272 163 31.4996C163 29.5987 161.35 27.6978 159.287 27.2226C156.399 26.5097 155.574 27.4602 156.193 30.7868Z" fill="#ADE9DE"/>
<path d="M57 37.3758C57 39.2747 58.1007 40.3296 59.6417 39.9076C63.6041 38.6417 64.2646 34 60.5222 34C58.541 34 57 35.4769 57 37.3758Z" fill="#ADE9DE"/>
<path d="M200.614 34.8618C197.547 37.645 198.962 40 203.917 40C206.512 40 208.399 38.9295 207.927 37.4309C206.748 34.4336 202.737 32.935 200.614 34.8618Z" fill="#ADE9DE"/>
<path d="M101.705 39.4107C95.059 46.4037 101.705 58.8105 110.345 55.4268C115.218 53.3966 115.218 38.9596 110.345 37.155C105.693 35.3503 105.914 35.3503 101.705 39.4107Z" fill="#ADE9DE"/>
<path d="M130.839 45.8504C128.285 52.2353 131.767 56.7959 138.5 55.8838C143.607 55.4277 145 54.0595 145 49.4989C145 44.9383 143.607 43.5701 138.5 43.114C134.321 42.658 131.767 43.5701 130.839 45.8504Z" fill="#ADE9DE"/>
<path d="M177.219 44.8679C176.552 45.9155 177.441 48.0107 179.442 49.4774C182.332 51.5726 183.221 51.5726 184.999 49.0583C186.111 47.3822 187 45.4965 187 44.4489C187 42.3537 178.553 42.5632 177.219 44.8679Z" fill="#ADE9DE"/>
<path d="M39.5333 47.9079C37.3133 53.6623 42.4933 58.4576 46.44 54.6213C48.9067 52.2237 48.4133 50.7851 45.2067 47.6681C41.5067 44.0716 41.0133 44.0716 39.5333 47.9079Z" fill="#ADE9DE"/>
<path d="M68.1946 47.2543C60.0191 51.8183 64.6908 63 74.5014 63C84.5456 63 88.9837 51.5901 80.5746 47.0261C74.9686 44.2877 73.3335 44.2877 68.1946 47.2543Z" fill="#ADE9DE"/>
<path d="M16 50.5C16 52.3667 17.6333 54 19.5 54C21.3667 54 23 52.3667 23 50.5C23 48.6333 21.3667 47 19.5 47C17.6333 47 16 48.6333 16 50.5Z" fill="#ADE9DE"/>
<path d="M206.203 59.3032C207.375 62.4483 212.766 63.0773 213 59.9323C213 58.6742 211.359 57.4162 209.015 57.2065C206.671 56.5775 205.499 57.4162 206.203 59.3032Z" fill="#ADE9DE"/>
<path d="M188.221 65.7721C188.665 69.1816 190.44 71 193.326 71C199.985 71 199.319 62.1352 192.66 61.226C188.221 60.5441 187.555 61.226 188.221 65.7721Z" fill="#ADE9DE"/>
<path d="M28.8 64.4707C26.5636 66.7746 29.297 70 33.5212 70C35.5091 70 37 68.3873 37 66.5442C37 63.0884 31.7818 61.7061 28.8 64.4707Z" fill="#ADE9DE"/>
<path d="M7 70.4838C7 75.6081 11.8527 74.9675 12.9076 69.6297C13.3296 67.4946 12.2747 66 10.3758 66C8.26592 66 7 67.9216 7 70.4838Z" fill="#ADE9DE"/>
<path d="M85.3597 69.2934C75.2882 76.4466 80.4358 95 92.2978 95C102.817 95 111.769 77.1172 104.16 70.8582C98.7883 66.3875 90.5073 65.7169 85.3597 69.2934Z" fill="#ADE9DE"/>
<path d="M157.252 69.1273C155.694 73.0351 161.703 82 165.709 82C169.27 82 172.608 72.1156 170.16 68.4377C168.157 64.7598 158.587 65.4494 157.252 69.1273Z" fill="#ADE9DE"/>
<path d="M48.8688 71.5368C44.5289 76.2213 45.2142 83.9506 50.2393 87.2297C55.0361 90.2746 66 83.7164 66 77.6266C66 68.2577 55.7213 64.7444 48.8688 71.5368Z" fill="#ADE9DE"/>
<path d="M123.675 74.6351C119.689 80.9813 120.158 86.8742 125.082 91.1805C133.993 99.1132 149 93.9003 149 82.7945C149 71.462 129.772 65.1159 123.675 74.6351Z" fill="#ADE9DE"/>
<path d="M23 85C23 87.233 24.4946 88.3496 26.8431 87.903C31.3268 87.0097 30.8998 82.9903 26.4161 82.097C24.281 81.6504 23 82.767 23 85Z" fill="#ADE9DE"/>
<path d="M192.245 88.7605C192.714 91.4941 194.59 94 196.465 94C201.623 94 200.92 85.1156 195.762 84.2044C192.245 83.521 191.542 84.4322 192.245 88.7605Z" fill="#ADE9DE"/>
<path d="M211.614 85.0055C208.547 88.2525 209.962 91 214.917 91C217.512 91 219.399 89.7511 218.927 88.0027C217.748 84.5059 213.737 82.7575 211.614 85.0055Z" fill="#ADE9DE"/>
<path d="M1.56332 90.557C-0.136491 94.0304 2.20075 98 6.02533 98C7.72514 98 9 95.7671 9 93.038C9 87.8278 3.90056 86.0911 1.56332 90.557Z" fill="#ADE9DE"/>
<path d="M102.762 101.279C89.7754 108.122 96.8381 125 112.558 125C122.583 125 126 121.579 126 111.999C126 106.069 124.633 103.788 119.165 101.051C111.191 96.9457 110.508 96.9457 102.762 101.279Z" fill="#ADE9DE"/>
<path d="M173.976 99.2275C172.373 99.9102 171 102.868 171 106.054C171 110.15 172.144 111.515 174.891 110.832C179.24 109.922 181.758 102.868 178.553 99.9102C177.638 99 175.349 98.7725 173.976 99.2275Z" fill="#ADE9DE"/>
<path d="M64.6888 102.744C63.1203 104.309 62 108.333 62 111.687C62 119.96 70.5145 124.431 78.805 120.63C86.4232 117.053 87.9917 112.358 83.5104 105.65C79.4772 99.6138 69.3942 98.0487 64.6888 102.744Z" fill="#ADE9DE"/>
<path d="M21.4999 105.46C20.7986 107.554 20.7986 109.881 21.7337 110.579C23.604 112.673 30.3839 106.391 28.7474 104.064C26.8771 100.806 23.1365 101.504 21.4999 105.46Z" fill="#ADE9DE"/>
<path d="M40.5335 105.722C37.3093 114.361 49.5152 119.88 55.2727 112.681C57.5758 109.801 57.5758 108.362 55.2727 105.482C51.3576 100.682 42.3759 100.922 40.5335 105.722Z" fill="#ADE9DE"/>
<path d="M142.058 107.122C133.714 116.3 135.969 125.713 146.794 128.536C151.529 129.713 154.235 128.772 158.52 124.301C166.638 115.829 165.736 109.946 155.814 104.298C149.049 100.768 147.696 101.004 142.058 107.122Z" fill="#ADE9DE"/>
<path d="M191.602 112.44C189.252 115.311 189.487 116.268 192.307 117.465C197.006 119.14 201 116.747 201 112.201C201 107.894 195.361 107.894 191.602 112.44Z" fill="#ADE9DE"/>
<path d="M211.071 114C212.531 118.75 219 119.5 219 115C219 112.5 217.122 111 214.618 111C212.114 111 210.653 112.25 211.071 114Z" fill="#ADE9DE"/>
<path d="M1.58998 115.481C0.68142 116.164 0 118.212 0 120.033C0 123.448 5.90564 124.131 7.72276 120.944C9.31275 118.44 3.63424 113.432 1.58998 115.481Z" fill="#ADE9DE"/>
<path d="M24.5224 124.803C23.6517 126.344 23.8694 128.325 25.1754 129.646C28.2229 132.728 34.9708 130.086 33.8824 126.344C32.5764 122.822 26.4815 121.722 24.5224 124.803Z" fill="#ADE9DE"/>
<path d="M167.04 128.305C162.998 133.451 165.243 140 171.307 140C178.493 140 182.311 133.451 178.493 128.538C174.676 123.86 170.633 123.86 167.04 128.305Z" fill="#ADE9DE"/>
<path d="M46.2857 133.211C44.8381 136.474 49.181 143 52.8 143C53.7651 143 56.4191 141.477 58.5905 139.519C61.4857 136.909 61.727 135.386 59.5556 132.993C55.9365 128.86 47.9746 129.078 46.2857 133.211Z" fill="#ADE9DE"/>
<path d="M88.8755 132.409C84.0129 135.284 83.5708 146.12 88.4335 150.764C95.5064 157.841 107 152.533 107 142.36C107 133.957 96.1695 128.207 88.8755 132.409Z" fill="#ADE9DE"/>
<path d="M126.201 133.351C115.968 140.276 122.015 157.031 134.108 154.797C143.411 153.233 147.364 139.829 140.62 133.351C136.201 128.883 132.713 128.883 126.201 133.351Z" fill="#ADE9DE"/>
<path d="M208.555 134.324C206.286 137.916 211.504 141.931 214.681 138.973C217.403 136.437 215.588 132 212.185 132C211.05 132 209.462 133.056 208.555 134.324Z" fill="#ADE9DE"/>
<path d="M187.451 137.398C185.266 140.28 185.484 141.241 188.544 142.442C193.571 144.603 197.287 140.04 193.353 136.438C190.948 134.276 189.637 134.517 187.451 137.398Z" fill="#ADE9DE"/>
<path d="M5 142.376C5 144.275 6.49459 145.33 8.62971 144.908C13.9675 143.853 14.6081 139 9.48376 139C6.92161 139 5 140.266 5 142.376Z" fill="#ADE9DE"/>
<path d="M29.7855 144.468C27.6211 146.882 27.3806 148.812 29.3045 150.743C32.1903 153.638 37 151.225 37 146.64C37 141.573 33.1523 140.366 29.7855 144.468Z" fill="#ADE9DE"/>
<path d="M64.7168 153.349C62.5745 158.793 65.4309 164 70.6677 164C77.0946 164 79.2369 156.663 74.2382 152.876C68.7634 148.852 66.3831 149.089 64.7168 153.349Z" fill="#ADE9DE"/>
<path d="M152.493 157.162C150.19 161.615 150.42 163.022 154.104 165.6C159.861 169.819 166.768 163.725 162.854 157.631C159.17 151.537 155.716 151.537 152.493 157.162Z" fill="#ADE9DE"/>
<path d="M41.3275 160.351C37.9774 164.512 41.3275 169.136 47.3576 167.749C52.9411 166.593 53.6111 161.969 48.6977 159.195C45.3476 157.346 43.5608 157.577 41.3275 160.351Z" fill="#ADE9DE"/>
<path d="M176.433 160.083C174.512 164.46 179.313 168.376 184.354 166.533C188.915 164.921 187.234 158.01 181.953 157.089C179.793 156.628 177.153 158.01 176.433 160.083Z" fill="#ADE9DE"/>
<path d="M202.591 158.436C199.448 161.416 201.244 166 205.51 166C207.979 166 210 165.083 210 163.937C210 160.957 204.163 156.603 202.591 158.436Z" fill="#ADE9DE"/>
<path d="M12.5877 161.481C10.8143 164.636 13.2527 168 17.2429 168C19.2379 168 20.3463 166.528 19.903 164.425C19.0163 160.22 14.5828 158.538 12.5877 161.481Z" fill="#ADE9DE"/>
<path d="M86.5771 165.152C83.6615 168.384 85.0072 177.157 88.8199 178.543C94.427 180.851 100.258 173.925 97.1183 168.846C94.427 164.46 89.0442 162.613 86.5771 165.152Z" fill="#ADE9DE"/>
<path d="M109.784 169.445C106.096 174.136 108.401 180 114.164 180C119.235 180 124.766 172.025 122.461 168.272C120.387 164.754 113.011 165.457 109.784 169.445Z" fill="#ADE9DE"/>
<path d="M133.502 171.59C131.939 175.915 134.171 180 138.189 180C141.76 180 146.671 171.831 144.439 169.428C141.76 166.785 134.618 167.986 133.502 171.59Z" fill="#ADE9DE"/>
<path d="M56.5224 175.029C55.6517 176.762 55.8694 178.991 57.1754 180.477C60.2229 183.944 66.9708 180.972 65.8824 176.762C64.5764 172.8 58.4815 171.562 56.5224 175.029Z" fill="#ADE9DE"/>
<path d="M23.7406 177.557C22.7967 179.001 22.7967 180.685 23.5046 181.407C25.3925 183.331 32 180.204 32 177.317C32 174.189 25.6285 174.189 23.7406 177.557Z" fill="#ADE9DE"/>
<path d="M163.563 177.301C161.864 180.427 164.201 184 168.025 184C169.725 184 171 181.99 171 179.534C171 174.845 165.901 173.282 163.563 177.301Z" fill="#ADE9DE"/>
<path d="M185.08 182.572C186.723 186.643 194 187.286 194 183.429C194 181.286 191.887 180 189.07 180C186.253 180 184.61 181.071 185.08 182.572Z" fill="#ADE9DE"/>
<path d="M38.4707 185.711C35.7061 188.362 37.0884 193 40.5442 193C42.3873 193 44 191.675 44 189.908C44 186.153 40.7746 183.723 38.4707 185.711Z" fill="#ADE9DE"/>
<path d="M144.53 187.506C142.879 191.874 145.238 196 149.486 196C153.733 196 155.621 189.933 152.318 186.535C148.778 182.895 145.946 183.138 144.53 187.506Z" fill="#ADE9DE"/>
<path d="M78.4327 190.083C76.5124 194.46 81.3131 198.376 86.3538 196.533C90.9145 194.921 89.2343 188.01 83.9535 187.089C81.7932 186.628 79.1528 188.01 78.4327 190.083Z" fill="#ADE9DE"/>
<path d="M121.599 196.126C117.246 200.791 118.392 203 124.806 203C128.93 203 130.533 201.773 129.846 198.827C128.93 193.671 125.035 192.444 121.599 196.126Z" fill="#ADE9DE"/>
<path d="M53.4509 198.179C51.5511 201.209 56.0631 205.32 59.3878 203.589C60.8126 202.724 62 201.209 62 200.127C62 197.314 55.1132 195.799 53.4509 198.179Z" fill="#ADE9DE"/>
<path d="M102.03 197.942C100.012 201.098 100.685 201.774 106.515 202.901C109.43 203.352 111 202.225 111 200.196C111 196.138 104.273 194.335 102.03 197.942Z" fill="#ADE9DE"/>
<path d="M165.392 202.564C164.674 204.014 164.913 206.19 166.348 207.64C169.457 210.783 174 208.124 174 203.289C174 199.421 167.783 198.696 165.392 202.564Z" fill="#ADE9DE"/>
<path d="M73 210.307C73 212.384 74.25 214 75.5 214C77 214 78 213.077 78 211.923C78 210.538 77 208.922 75.5 208.23C74.25 207.537 73 208.461 73 210.307Z" fill="#ADE9DE"/>
<path d="M136.711 213.471C134.723 215.775 137.153 219 140.908 219C142.675 219 144 217.387 144 215.544C144 212.088 139.362 210.706 136.711 213.471Z" fill="#ADE9DE"/>
<path d="M92.0864 216.619C92.5346 218.048 93.8794 219 95 219C96.1206 219 97.4654 218.048 97.9136 216.619C98.3619 215.19 97.0171 214 95 214C92.9829 214 91.6381 215.19 92.0864 216.619Z" fill="#ADE9DE"/>
<path d="M111.227 216.341C110.536 217.8 111.457 219.503 113.529 220.232C117.902 222.177 120.434 220.232 118.132 216.585C116.291 213.18 113.068 213.18 111.227 216.341Z" fill="#ADE9DE"/>
</svg>
