<svg width="185" height="197" viewBox="0 0 185 197" fill="none" xmlns="http://www.w3.org/2000/svg">
<path d="M85.7556 5.45389C82.0967 9.56334 79.8099 10.2483 77.9804 8.42183C74.0929 4.54068 64.0309 8.19353 62.6588 14.1294C61.5154 18.4672 60.1433 19.1521 53.5115 18.4672C46.8797 17.7823 45.0503 18.4672 41.6201 24.1747C39.1046 28.0559 35.903 30.3389 33.6162 29.8823C27.6705 28.7408 20.5813 33.5351 18.9806 39.6993C18.2945 42.8956 16.2364 45.4069 14.4069 45.4069C12.8062 45.4069 9.60463 47.9182 7.54649 51.1145C4.11627 56.3654 4.11627 57.2786 7.54649 62.5296C9.60463 65.7258 10.2907 68.2372 9.14727 68.2372C4.57363 68.2372 1.37209 77.5976 4.11627 83.5335C6.1744 87.8712 5.71704 90.1543 2.74418 94.9486C-0.914727 100.428 -0.914727 101.113 2.74418 107.505C5.94572 112.985 5.94572 115.039 3.65891 118.692C1.37209 122.345 1.60077 124.4 4.57363 129.422C7.08913 134.217 7.54649 137.185 5.94572 140.837C3.20154 147.002 9.14727 154.992 16.6938 154.992C19.4379 154.992 22.4108 157.047 23.7829 160.015C25.3837 163.896 27.8992 165.266 33.6162 165.266C38.8759 165.266 40.934 166.179 40.934 168.919C40.934 174.398 48.9379 180.562 55.1123 179.877C58.3138 179.421 62.4301 181.019 65.8603 184.443C69.2905 187.868 72.7208 189.238 75.6936 188.553C78.4378 187.64 83.0114 189.238 86.899 191.977L93.5308 197L100.391 191.749C104.736 188.553 109.081 187.183 111.825 188.096C114.798 189.009 118.228 187.64 122.116 183.758C125.318 180.562 129.891 177.823 132.407 177.823C134.693 177.823 138.581 175.311 141.097 172.343C144.069 168.462 147.042 167.092 150.015 167.777C153.217 168.69 156.19 167.092 159.391 163.211C161.907 160.015 165.337 157.275 167.166 157.275C174.713 157.275 181.573 143.577 175.856 140.153C174.484 139.239 175.17 136.5 177.914 133.075C181.573 128.509 182.031 125.998 180.201 121.432C178.6 116.866 178.829 114.583 182.031 111.158C185.232 107.505 185.461 105.679 183.403 100.2C181.802 96.0901 181.802 92.8939 182.945 91.9807C186.376 89.926 185.232 78.2825 181.573 75.0863C179.058 73.0315 178.6 71.4334 180.43 69.607C184.775 65.2692 183.174 54.539 177.457 52.0277C174.484 50.6579 171.054 46.3201 169.91 42.439C168.31 36.5031 166.48 34.905 160.535 34.4484C155.732 33.9918 152.988 32.3936 152.988 30.3389C152.988 23.9464 143.841 17.5539 136.98 18.9238C131.492 19.837 130.349 19.3804 129.662 15.0426C128.748 8.87843 118 4.54068 112.283 7.96523C109.31 10.02 107.709 9.33504 104.279 4.99728C98.7905 -1.85179 92.3874 -1.62349 85.7556 5.45389ZM102.678 7.73692C106.566 12.303 101.992 18.0106 94.2168 18.0106C91.244 18.0106 88.2711 16.4124 87.5851 14.586C85.2983 8.87843 88.4998 4.31238 94.2168 4.31238C97.4184 4.31238 101.077 5.91051 102.678 7.73692ZM80.4959 16.1841C85.5269 23.9464 72.2634 31.2521 66.3177 23.9464C64.2595 21.4351 64.0309 19.3804 66.089 15.7275C69.0619 10.02 76.837 10.2483 80.4959 16.1841ZM126.461 14.586C129.434 22.8049 119.372 30.3389 112.969 24.8596C109.31 21.8917 108.395 15.2709 111.139 12.7596C113.883 9.79166 125.089 11.1615 126.461 14.586ZM61.5154 28.2842C61.5154 31.2521 55.5696 38.5578 53.2828 38.5578C52.5968 38.5578 50.0813 37.4163 47.5658 36.2748C41.6201 32.8502 42.0774 25.0879 48.4805 22.8049C54.4262 20.5219 61.5154 23.4898 61.5154 28.2842ZM88.9572 21.2068C88.9572 23.7181 82.5541 33.7635 81.6394 32.6219C80.0386 31.2521 85.0696 20.2936 87.3564 20.2936C88.2711 20.2936 88.9572 20.7502 88.9572 21.2068ZM147.728 26.2295C149.786 31.7087 145.442 37.4163 139.267 37.4163C132.178 37.4163 128.29 31.0238 132.178 26.2295C136.066 21.4351 145.899 21.4351 147.728 26.2295ZM105.88 28.7408C107.938 33.7635 99.7052 41.9824 94.9029 40.1559C90.3293 38.3295 88.0424 32.8502 89.8719 28.2842C91.7013 23.4898 104.05 23.7181 105.88 28.7408ZM38.8759 37.6446C42.7635 42.439 38.8759 48.8314 31.7868 48.8314C24.6976 48.8314 20.81 42.439 24.6976 37.6446C26.5271 35.5899 29.4999 33.9918 31.7868 33.9918C34.0736 33.9918 37.0464 35.5899 38.8759 37.6446ZM81.4107 37.6446C83.4688 43.1239 79.1239 48.8314 72.7208 48.8314C67.2324 48.8314 64.4882 43.5805 67.0037 37.188C68.6045 32.8502 79.5812 33.0785 81.4107 37.6446ZM125.089 40.1559C126.461 49.0597 111.825 52.4843 108.624 44.0371C106.108 37.6446 109.767 33.7635 117.314 34.4484C122.573 34.905 124.632 36.5031 125.089 40.1559ZM167.852 42.439C169.91 48.3748 160.992 55.2239 155.046 52.256C150.701 49.973 149.1 43.1239 152.302 40.1559C155.504 36.9597 166.252 38.5578 167.852 42.439ZM148.414 41.754C148.414 42.439 147.5 43.5805 146.128 44.2654C144.984 44.9503 143.841 44.4937 143.841 43.3522C143.841 41.9824 144.984 40.8408 146.128 40.8408C147.5 40.8408 148.414 41.2974 148.414 41.754ZM61.058 51.5711C62.4301 60.4749 47.7945 63.8994 44.5929 55.4522C42.0774 49.0597 45.7363 45.1786 53.2828 45.8635C58.5425 46.3201 60.6006 47.9182 61.058 51.5711ZM102.221 52.4843C102.678 56.5937 101.535 59.1051 99.0192 60.0183C92.8447 62.5296 86.6703 59.3334 86.6703 53.6258C86.6703 46.7767 88.7285 44.9503 95.8176 45.8635C100.163 46.3201 101.763 48.1465 102.221 52.4843ZM142.469 48.8314C146.585 52.9409 144.984 58.1919 138.81 61.6164C130.12 66.4108 123.259 52.9409 131.949 47.9182C137.209 44.722 138.352 44.9503 142.469 48.8314ZM21.7248 53.3975C23.3255 57.5069 18.7519 63.6711 14.1783 63.6711C10.2907 63.6711 8.00386 58.1919 9.83331 53.3975C11.4341 48.8314 20.124 49.0597 21.7248 53.3975ZM179.972 60.7032C180.887 67.5523 172.883 71.89 168.081 66.8674C163.736 62.5296 163.507 60.9315 167.166 57.2786C171.511 52.9409 179.286 54.9956 179.972 60.7032ZM40.7053 60.0183C46.4224 66.8674 35.217 76.2278 28.3565 70.5202C24.6976 67.5523 23.7829 60.9315 26.5271 58.4202C29.0426 55.6805 37.9612 56.5937 40.7053 60.0183ZM78.4378 58.1919C82.7828 59.79 83.2401 66.1825 79.3525 70.0636C72.4921 76.9127 61.5154 70.0636 66.089 61.6164C68.6045 56.5937 72.0347 55.6805 78.4378 58.1919ZM121.887 60.2466C124.86 68.4655 114.798 75.9995 108.395 70.5202C104.736 67.5523 103.821 60.9315 106.566 58.4202C109.31 55.4522 120.515 56.822 121.887 60.2466ZM161.678 64.5843C162.593 68.6938 156.876 75.0863 152.531 75.0863C151.616 75.0863 149.786 73.0315 148.414 70.2919C146.356 66.8674 146.585 64.8126 148.643 62.3013C152.531 57.7352 160.763 59.1051 161.678 64.5843ZM102.678 75.0863C102.678 80.1089 95.3603 84.9033 90.3293 82.8486C83.2401 80.1089 83.6975 69.3787 90.7866 67.5523C96.7323 66.4108 102.678 70.0636 102.678 75.0863ZM61.058 74.4014C61.9727 81.0221 54.1976 85.3599 47.7945 81.9354C42.9921 79.424 42.3061 77.5976 44.5929 71.6617C46.8797 65.9541 60.1433 68.0089 61.058 74.4014ZM142.24 73.2598C144.069 75.9995 143.841 78.0542 141.783 80.5655C137.438 85.8165 128.519 85.1316 126.69 79.6523C123.488 69.8353 136.752 64.356 142.24 73.2598ZM22.8682 74.1731C26.7558 78.9674 22.8682 85.3599 15.779 85.3599C8.6899 85.3599 4.80231 78.9674 8.6899 74.1731C10.5194 72.1183 13.4922 70.5202 15.779 70.5202C18.0659 70.5202 21.0387 72.1183 22.8682 74.1731ZM165.794 76.9127C163.965 78.9674 161.449 79.8806 160.763 78.9674C158.476 76.9127 164.422 70.2919 167.166 71.89C168.538 72.8032 168.081 74.858 165.794 76.9127ZM181.345 80.1089C182.945 82.8486 182.717 84.9033 180.659 87.4146C176.542 92.4373 171.969 91.9807 168.996 86.7297C167.395 83.3052 167.624 81.2505 170.368 78.5108C174.713 74.4014 177.914 74.858 181.345 80.1089ZM41.8487 84.9033C43.9069 88.3278 43.4495 89.926 39.1046 93.3505C29.4999 101.341 19.8953 91.7524 28.5852 83.0769C33.1588 78.7391 38.4185 79.424 41.8487 84.9033ZM80.0386 83.3052C83.9262 88.0995 80.0386 94.492 72.9494 94.492C65.8603 94.492 61.9727 88.0995 65.8603 83.3052C67.6898 81.2505 70.6626 79.6523 72.9494 79.6523C75.2363 79.6523 78.2091 81.2505 80.0386 83.3052ZM121.201 83.3052C125.089 88.0995 121.201 94.492 114.112 94.492C107.023 94.492 103.135 88.0995 107.023 83.3052C108.852 81.2505 111.825 79.6523 114.112 79.6523C116.399 79.6523 119.372 81.2505 121.201 83.3052ZM162.821 86.5014C164.422 92.8939 154.589 99.743 149.558 95.6335C145.899 92.6656 144.984 86.0448 147.728 83.5335C148.414 82.6203 152.073 81.9354 155.504 81.9354C159.62 81.9354 161.907 83.3052 162.821 86.5014ZM60.1433 94.7203C64.9456 99.2864 64.7169 100.884 58.9999 106.135C55.5696 109.332 53.5115 109.788 50.5386 107.962C45.0503 104.309 44.3642 97.6883 49.1666 94.0354C54.4262 90.1543 55.7983 90.3826 60.1433 94.7203ZM101.992 94.7203C103.593 99.2864 100.163 105.679 95.3603 106.592C89.4145 107.734 83.9262 100.656 86.6703 95.4052C89.6432 90.1543 99.9339 89.6977 101.992 94.7203ZM141.097 98.1449C141.554 102.254 140.411 104.766 137.895 105.679C131.721 108.19 125.546 104.994 125.546 99.2864C125.546 92.4373 127.604 90.6109 134.693 91.5241C139.038 91.9807 140.639 93.8071 141.097 98.1449ZM20.5813 97.0033C24.4689 101.798 20.5813 108.19 13.4922 108.19C6.40309 108.19 2.5155 101.798 6.40309 97.0033C8.23254 94.9486 11.2054 93.3505 13.4922 93.3505C15.779 93.3505 18.7519 94.9486 20.5813 97.0033ZM177.686 97.6883C183.174 101.113 179.972 110.473 173.341 111.158C165.566 112.071 160.992 106.592 164.422 100.428C166.938 95.4052 172.426 94.2637 177.686 97.6883ZM43.2208 111.615C43.2208 116.637 35.903 121.432 30.872 119.377C23.7829 116.637 24.2403 105.907 31.3294 104.081C37.2751 102.939 43.2208 106.592 43.2208 111.615ZM82.3254 106.135C86.213 110.93 82.3254 117.322 75.2363 117.322C69.0619 117.322 64.7169 111.615 66.775 106.135C68.6045 101.341 78.4378 101.341 82.3254 106.135ZM119.601 106.135C124.403 110.93 124.174 112.985 118.228 117.094C114.798 119.605 112.283 119.834 109.081 118.236C103.821 115.496 103.821 107.962 109.081 104.994C114.341 101.798 115.484 101.798 119.601 106.135ZM155.504 104.766C161.221 107.962 160.992 115.268 155.046 118.464C151.387 120.519 149.329 120.29 145.899 117.094C140.639 112.3 140.411 110.702 145.213 106.135C149.329 101.798 149.786 101.798 155.504 104.766ZM130.12 111.615C130.12 112.756 129.205 113.898 127.833 113.898C126.69 113.898 125.546 112.756 125.546 111.615C125.546 110.245 126.69 109.332 127.833 109.332C129.205 109.332 130.12 110.245 130.12 111.615ZM102.221 120.062C103.593 128.966 88.9572 132.39 85.7556 123.943C83.2401 117.551 86.899 113.669 94.4455 114.354C99.7052 114.811 101.763 116.409 102.221 120.062ZM22.4108 119.377C28.1278 126.226 16.9224 135.587 10.062 129.879C6.40309 126.911 5.48836 120.29 8.23254 117.779C10.748 115.039 19.6666 115.952 22.4108 119.377ZM60.1433 119.834C65.6316 125.085 60.8293 132.619 52.8255 131.705C48.2518 131.249 46.4224 129.651 45.965 125.541C44.5929 116.866 53.5115 113.213 60.1433 119.834ZM141.554 119.834C144.069 122.802 143.841 123.943 140.182 127.824C133.093 134.673 123.488 128.737 126.918 119.605C128.748 115.039 137.895 115.268 141.554 119.834ZM177.686 124.628C178.6 131.02 170.368 136.043 165.337 131.934C161.907 129.194 160.992 122.573 163.736 119.834C167.395 116.409 177 119.605 177.686 124.628ZM43.2208 133.304C43.2208 139.011 36.5891 143.577 31.1007 141.522C24.0116 138.783 23.0968 130.336 29.9573 127.824C36.1317 125.541 43.2208 128.509 43.2208 133.304ZM81.6394 131.477C82.7828 138.783 72.0347 143.805 67.0037 138.554C64.4882 136.271 63.8022 133.304 64.9456 130.107C67.2324 122.802 80.7246 124.171 81.6394 131.477ZM120.515 132.619C120.973 136.956 120.058 139.011 116.399 140.153C107.938 142.892 101.763 133.988 107.709 128.053C112.511 123.258 119.829 125.77 120.515 132.619ZM157.562 128.737C162.135 134.445 159.391 140.153 151.845 140.153C147.042 140.153 144.755 139.011 144.298 136.043C143.383 131.249 147.5 125.313 151.845 125.313C153.445 125.313 155.961 126.911 157.562 128.737ZM22.6395 140.381C25.155 143.349 24.9263 144.719 20.81 148.6C16.9224 152.709 15.5504 152.938 12.5775 150.426C8.91858 147.458 7.77518 140.837 10.5194 138.326C13.0349 135.587 19.6666 136.728 22.6395 140.381ZM59.4572 140.381C63.8022 145.632 59.2285 151.568 50.996 151.568C46.4224 151.568 44.1356 150.198 43.6782 147.458C41.8487 138.326 53.5115 133.075 59.4572 140.381ZM101.535 141.294C104.736 151.111 91.4727 156.59 85.9843 147.915C82.3254 141.979 85.7556 136.728 93.3021 136.728C98.1044 136.728 100.62 138.098 101.535 141.294ZM138.352 139.924C141.783 142.664 142.24 144.034 140.182 147.458C136.98 152.709 130.806 153.851 126.69 150.426C122.345 146.773 122.345 144.719 126.918 140.381C131.263 135.815 132.635 135.815 138.352 139.924ZM172.426 145.86C172.426 149.97 171.054 151.796 167.166 152.253C161.678 153.166 158.476 148.143 160.763 142.207C161.449 140.153 164.193 139.011 167.166 139.468C171.054 139.924 172.426 141.751 172.426 145.86ZM37.2751 147.23C42.3061 149.285 41.8487 158.873 36.5891 161.841C28.8139 165.951 21.2674 154.992 27.6705 148.6C30.872 145.404 32.2441 145.404 37.2751 147.23ZM81.4107 151.796C83.2401 156.59 79.3525 162.755 74.0929 163.896C68.1471 165.038 63.3448 157.96 66.3177 152.481C69.0619 147.23 79.3525 146.773 81.4107 151.796ZM119.829 154.992C119.829 159.558 118.457 160.928 113.426 161.385C109.31 161.841 106.794 160.928 105.88 158.645C103.364 152.253 106.794 147.687 113.426 148.6C118.457 149.056 119.829 150.426 119.829 154.992ZM157.79 151.796C161.678 156.59 157.79 162.983 150.473 162.983C146.356 162.983 144.755 161.613 144.298 157.504C142.926 148.828 152.073 144.947 157.79 151.796ZM101.306 162.526C103.364 165.951 102.907 167.321 99.2478 170.06C96.961 171.887 93.7595 173.028 92.6161 172.572C88.7285 171.202 85.9843 164.809 87.3564 160.928C89.4145 155.905 97.8757 157.047 101.306 162.526ZM138.81 167.092C138.352 170.973 136.523 172.115 131.263 172.115C123.259 172.115 120.515 165.038 126.69 160.472C132.407 156.362 139.724 160.472 138.81 167.092ZM61.2867 162.755C63.3448 165.266 63.5735 167.321 61.5154 170.973C57.8565 177.823 46.8797 176.453 45.965 168.919C44.5929 160.472 55.7983 155.905 61.2867 162.755ZM82.0967 173.028C83.6975 176.453 83.4688 178.279 80.7246 181.019C76.837 185.128 75.2363 185.357 69.7479 183.302C66.089 181.932 64.7169 173.028 67.6898 170.289C70.6626 167.092 79.8099 168.919 82.0967 173.028ZM121.887 173.941C123.945 177.366 123.488 178.736 120.058 181.475C113.883 185.813 110.225 185.585 107.252 179.877C101.992 170.289 116.17 164.353 121.887 173.941ZM101.763 181.247C103.593 185.813 98.7905 191.521 93.0734 191.521C88.2711 191.521 85.5269 186.498 87.5851 181.247C89.1858 176.681 100.163 176.909 101.763 181.247Z" fill="#846382"/>
</svg>
