<svg width="179" height="185" viewBox="0 0 179 185" fill="none" xmlns="http://www.w3.org/2000/svg">
<path d="M32.2921 0.838303C31.6093 1.98546 30.016 11.3921 28.6503 21.946C23.8705 60.2609 16.8146 98.5759 11.5795 116.471C5.43402 136.661 -1.84952 181.63 0.426586 183.924C2.70269 186.448 36.1615 184.154 44.8107 180.942C49.1353 179.336 65.2956 173.37 80.5456 167.405C95.7955 161.669 119.922 153.639 134.034 149.739C148.146 146.068 164.079 140.791 169.314 138.497C187.75 130.237 182.515 120.831 130.392 68.291C102.851 40.7593 91.4709 31.1232 73.262 19.6516C47.0868 3.59148 34.3406 -2.37373 32.2921 0.838303ZM80.0903 32.9586C104.445 49.7071 117.646 61.6375 142.911 90.3163C168.631 119.683 174.549 128.861 169.769 131.843C166.582 133.679 152.471 138.038 115.37 148.821C103.534 152.263 83.0493 159.604 69.8479 164.881C56.6464 170.158 40.4861 175.665 33.8854 177.271C22.5048 179.565 3.84075 180.712 3.84075 179.106C3.84075 178.647 8.84818 154.557 14.9937 125.649C25.6914 75.8622 33.6578 35.7118 36.8443 16.2102L38.21 7.49181L51.1838 14.8336C58.2397 18.7339 71.4411 26.9934 80.0903 32.9586Z" fill="#3C4DAE"/>
<path d="M38.7996 33.6085C38.1132 39.099 36.5117 54.198 35.1389 67.4669C33.7662 80.7357 28.7328 107.502 23.6994 126.948C13.175 169.042 13.175 169.271 37.4268 167.441C48.4088 166.754 57.7892 164.009 72.8894 157.146C84.329 152.113 105.607 144.335 120.707 139.988C136.265 135.412 149.763 129.922 152.509 127.405C157.085 122.83 157.085 122.601 152.966 116.196C147.475 107.96 117.504 72.4999 109.725 65.1791C93.7094 50.5377 50.6967 24 42.689 24C41.3163 24 39.486 28.3467 38.7996 33.6085ZM67.856 42.9882C78.1516 49.8513 90.9639 59.0023 96.4549 63.5777C110.64 75.4739 147.246 118.026 147.246 122.601C147.246 126.948 141.984 129.236 113.843 137.014C102.403 140.217 82.9562 147.08 70.6015 152.113C45.8921 162.179 35.5965 164.695 28.7328 162.636C24.8433 161.264 24.3858 159.434 25.0721 146.394C25.5297 138.158 28.9616 121.915 32.851 110.247C36.9693 97.2074 40.4011 79.3631 42.2315 62.8914C44.9769 34.7523 45.6633 30.8632 47.9512 30.8632C48.6376 30.8632 57.7892 36.3537 67.856 42.9882Z" fill="#3C4DAE"/>
<path d="M47.8908 49.4964C47.4344 51.0934 45.8368 62.7292 44.4674 75.2776C43.098 87.826 39.4464 109.729 36.4794 124.102C33.2842 138.476 31.4584 151.024 32.1431 151.937C34.6536 156.044 54.053 153.762 70.029 147.374C79.1581 143.951 96.7317 137.563 109.056 133.456C121.38 129.35 132.107 124.559 132.792 122.733C135.987 114.748 101.753 77.1028 75.7347 60.2195C54.9659 46.5304 49.4884 44.477 47.8908 49.4964ZM83.9509 71.1709C97.1881 81.4377 126.63 116.117 126.63 121.364C126.63 122.733 118.185 126.612 107.915 129.806C88.5155 135.51 39.6746 149.427 38.3052 149.427C36.7077 149.427 40.3593 122.961 44.4674 105.394C46.7497 95.1269 49.4884 80.0688 50.1731 71.8553C52.4554 49.9527 52.2272 50.1808 62.2692 55.8846C67.2902 58.6225 76.8758 65.467 83.9509 71.1709Z" fill="#3C4DAE"/>
<path d="M56.5914 88.2086C54.988 101.178 52.2395 118.243 50.4072 126.207C48.5748 134.171 47.6586 141.224 48.1167 141.907C49.9491 143.5 109.729 124.159 113.165 120.746C117.059 117.333 115.227 113.238 103.087 98.9028C93.9255 87.9811 65.9821 65 61.8594 65C60.4851 65 58.1947 74.3289 56.5914 88.2086ZM76.5182 79.5623C88.4284 89.1188 104.691 107.094 109.271 115.285C111.104 118.926 108.584 120.291 85.6799 127.572C59.5689 135.764 54.0719 136.901 54.0719 133.716C54.0719 132.806 56.1333 119.381 58.6527 103.909C61.1722 88.2086 62.7755 74.1014 62.3174 72.5087C60.2561 67.5029 63.9207 69.3232 76.5182 79.5623Z" fill="#3C4DAE"/>
<path d="M69.1177 87.8745C65.7303 98.1466 61.2137 121.025 62.117 122.66C63.472 124.761 90.3454 116.59 93.7329 113.088C95.0878 111.687 91.2488 106.318 83.119 97.6797C74.0859 88.3414 69.7952 85.3065 69.1177 87.8745ZM81.0865 102.115C84.9256 106.318 88.0872 110.52 88.0872 111.22C88.0872 112.621 72.5051 117.99 68.2144 117.99C66.1819 117.99 67.3111 109.819 71.1501 97.4462C72.5051 93.244 73.6342 93.7109 81.0865 102.115Z" fill="#3C4DAE"/>
<path d="M72.3459 106.95C69.8968 113.622 70.3421 113.852 77.4666 112.011C84.3685 110.401 84.8138 107.64 78.8024 104.189C75.0175 102.118 73.9043 102.579 72.3459 106.95Z" fill="#3C4DAE"/>
</svg>
