<svg width="281" height="272" viewBox="0 0 281 272" fill="none" xmlns="http://www.w3.org/2000/svg">
<path d="M133 2.18619C133 5.26576 140.778 7.31882 144.111 5.00913C145.889 3.72598 145 2.69945 141.444 1.67292C134.556 -0.636759 133 -0.636759 133 2.18619Z" fill="#5F0B47"/>
<path d="M112 5C112 6 114.025 7 116.5 7C118.975 7 121 6 121 5C121 3.8 118.975 3 116.5 3C114.025 3 112 3.8 112 5Z" fill="#5F0B47"/>
<path d="M163 4.9858C163 6.08902 166.219 7.19225 170.081 6.9716C175.875 6.9716 176.305 6.53031 172.657 4.9858C166.648 2.33807 163 2.33807 163 4.9858Z" fill="#5F0B47"/>
<path d="M88.2764 9.53165C86.4734 12.8228 93.9107 12.8228 98.4182 9.53165C101.123 7.50633 100.447 7 95.7137 7C92.3331 7 88.9525 8.01266 88.2764 9.53165Z" fill="#5F0B47"/>
<path d="M188.391 13.2184C190.403 15.5912 193.087 16.6458 194.428 15.5912C198.006 12.9547 195.099 9 189.509 9C185.037 9 185.037 9.26365 188.391 13.2184Z" fill="#5F0B47"/>
<path d="M131.818 13.7384C126.76 15.6572 128.369 17.3362 137.796 19.7347C143.085 20.9339 149.063 17.8159 146.304 15.4174C143.774 13.0188 135.497 12.2993 131.818 13.7384Z" fill="#5F0B47"/>
<path d="M101.216 16.4684C98.7456 18.2405 99.8687 19 106.158 19C110.651 19 115.143 17.7342 115.817 16.4684C117.614 13.1772 105.709 13.1772 101.216 16.4684Z" fill="#5F0B47"/>
<path d="M71.7093 21.4649C61.1971 27.4248 63.5863 29.1908 75.0541 23.6723C79.8323 21.4649 82.9382 18.816 81.7436 18.1538C80.3101 17.4916 76.0097 19.0368 71.7093 21.4649Z" fill="#5F0B47"/>
<path d="M156 17.9825C156 20.28 168.904 23.2667 171.796 21.4287C172.909 20.7395 173.354 19.1312 172.686 17.9825C170.907 15.4553 156 15.2255 156 17.9825Z" fill="#5F0B47"/>
<path d="M206.656 22.0769C212.278 25.9744 217 25.9744 217 22.0769C217 20.0256 214.751 19 209.804 19C202.833 19.2051 202.608 19.2051 206.656 22.0769Z" fill="#5F0B47"/>
<path d="M183 22.9729C183 25.1651 196.873 28.234 198.692 26.4803C200.511 24.5074 193.916 21 188.231 21C185.274 21 183 21.8769 183 22.9729Z" fill="#5F0B47"/>
<path d="M83.5727 25.2298C77.7798 27.4281 71.5234 35 74.9992 35C76.3895 35 78.0115 34.023 78.9384 32.8017C79.6335 31.5804 83.341 29.8707 87.0485 28.8936C90.9877 27.9166 94 26.2068 94 24.9856C94 22.2988 89.8291 22.2988 83.5727 25.2298Z" fill="#5F0B47"/>
<path d="M157.082 27.849C155.952 29.6944 166.8 35 171.772 35C176.518 35 173.128 30.6171 166.8 28.3104C158.212 25.3116 158.664 25.3116 157.082 27.849Z" fill="#5F0B47"/>
<path d="M116.645 29.5137C111.867 30.0169 108 31.2748 108 32.7842C108 36.0548 123.242 35.5516 125.062 32.2811C127.109 28.759 126.427 28.5074 116.645 29.5137Z" fill="#5F0B47"/>
<path d="M133 30C133 31 135.965 32 139.615 32C143.492 32 147.141 31 147.826 30C148.738 28.8 146.001 28 141.211 28C136.649 28 133 28.8 133 30Z" fill="#5F0B47"/>
<path d="M208 31.5661C208 34.6982 222.312 43.1998 224.583 41.8575C227.309 40.0677 215.951 30 211.18 30C209.363 30 208 30.6712 208 31.5661Z" fill="#5F0B47"/>
<path d="M46.9599 35.3787C44.7265 37.3952 43.3865 39.6637 44.2798 40.6719C45.8432 42.4363 55 36.639 55 33.8664C55 30.8417 51.8733 31.5979 46.9599 35.3787Z" fill="#5F0B47"/>
<path d="M89.6023 38.0769C85.8449 41.9744 88.8978 41.9744 96.6475 38.0769C102.284 35.4103 102.284 35.2051 97.5868 35C94.7687 35 91.2462 36.4359 89.6023 38.0769Z" fill="#5F0B47"/>
<path d="M184.083 36.757C182.734 38.993 198.247 44.5829 200.27 42.5705C202.294 40.5582 200.27 39.2166 192.177 36.757C188.355 35.8626 184.757 35.639 184.083 36.757Z" fill="#5F0B47"/>
<path d="M231 36.8799C231 39.3865 237.585 44.1907 239.175 42.7286C241.673 40.6398 238.039 35 234.406 35C232.59 35 231 35.8355 231 36.8799Z" fill="#5F0B47"/>
<path d="M140 39.1421C140 41.5222 153.434 44.1404 156.297 42.4743C159.16 40.5702 152.774 37 146.167 37C142.643 37 140 37.9521 140 39.1421Z" fill="#5F0B47"/>
<path d="M57.5552 42.7725C54.1001 44.6317 50.8753 47.6527 50.1843 49.7443C49.2629 52.0682 51.7967 51.1386 57.7855 47.188C70.224 38.8219 69.9936 36.0332 57.5552 42.7725Z" fill="#5F0B47"/>
<path d="M123.39 40.7396C126.053 41.0868 130.049 41.0868 132.268 40.7396C134.266 40.2188 132.046 39.8716 127.163 40.0452C122.28 40.0452 120.504 40.3924 123.39 40.7396Z" fill="#5F0B47"/>
<path d="M166.874 42.6207C170.163 44.5517 174.862 46 177.446 46C182.145 46 182.145 46 177.681 42.6207C175.097 40.6897 170.398 39 167.108 39L161 39.2414L166.874 42.6207Z" fill="#5F0B47"/>
<path d="M97.334 46.4652C91.9677 49.0324 90.1011 53 94.3008 53C98.7339 53 108.067 47.6321 106.9 45.765C105.5 43.1977 103.867 43.4311 97.334 46.4652Z" fill="#5F0B47"/>
<path d="M188 46.0819C188 48.2655 200.894 57 204.229 57C208.231 57 205.118 52.6328 198.227 48.4839C189.779 43.2432 188 42.8065 188 46.0819Z" fill="#5F0B47"/>
<path d="M211 45.6411C211 47.8255 220.248 57 222.398 57C225.624 57 223.688 51.9759 219.172 48.0439C213.796 43.6751 211 42.8014 211 45.6411Z" fill="#5F0B47"/>
<path d="M28.9576 50.7307C26.7259 53.2906 25.3869 56.0831 26.2796 56.7813C27.6186 58.4102 38.7768 50.498 39 47.7055C39 44.4475 32.9746 46.0765 28.9576 50.7307Z" fill="#5F0B47"/>
<path d="M68.2281 50.9042C58.4936 58.3238 60.7575 60.8742 70.9447 53.9184C75.9251 50.4405 80 47.4263 80 46.9626C80 44.644 73.6613 46.7307 68.2281 50.9042Z" fill="#5F0B47"/>
<path d="M168.31 50.5C172.113 52.975 176.14 55 177.258 55C181.061 54.775 169.205 46 165.179 46C162.942 46 163.837 47.575 168.31 50.5Z" fill="#5F0B47"/>
<path d="M140.007 49.7692C142.098 50.0769 145.817 50.0769 148.142 49.7692C150.233 49.3077 148.374 49 143.958 49C139.542 49 137.682 49.3077 140.007 49.7692Z" fill="#5F0B47"/>
<path d="M112 53.2486C108.571 54.3131 106 56.2291 106 57.2936C106 59.6353 106 59.6353 114.357 56.8678C118 55.5904 121 53.6744 121 52.61C121 50.2682 119.5 50.4811 112 53.2486Z" fill="#5F0B47"/>
<path d="M233 52.6639C233 54.8439 242.963 64 245.28 64C248.524 64 246.902 58.114 242.731 54.6259C238.097 50.7019 233 49.8299 233 52.6639Z" fill="#5F0B47"/>
<path d="M251.389 57.5314C254.447 62.9692 259.622 63.6489 257.505 58.4377C256.799 56.3986 256.094 54.3594 256.094 53.9063C256.094 53.4531 254.447 53 252.565 53C249.507 53 249.272 53.9063 251.389 57.5314Z" fill="#5F0B47"/>
<path d="M134.239 57.4823C134.917 58.8613 138.983 60.2403 142.823 59.9645C148.921 59.9645 149.373 59.4129 145.533 57.4823C139.208 54.1726 132.658 54.1726 134.239 57.4823Z" fill="#5F0B47"/>
<path d="M185 55.8591C185 58.7279 198.513 66.6171 199.887 64.7046C200.574 63.2702 198.055 60.6404 194.39 58.4888C187.29 54.9028 185 54.1856 185 55.8591Z" fill="#5F0B47"/>
<path d="M76.0442 61.3057C68.5121 66.1497 72.3923 69.3088 80.3809 64.886C84.0328 62.78 87 60.4633 87 59.6209C87 56.883 81.5221 57.7254 76.0442 61.3057Z" fill="#5F0B47"/>
<path d="M158 59.0811C158 61.1568 169.941 64.155 171.548 62.5406C172.926 61.1568 171.318 60.0036 164.43 58.3892C160.756 57.6973 158 57.9279 158 59.0811Z" fill="#5F0B47"/>
<path d="M229 59.5899C229 63.2668 235.623 73 238.052 73C241.584 73 240.259 69.1067 234.519 62.8343C231.649 59.5899 229 58.0758 229 59.5899Z" fill="#5F0B47"/>
<path d="M34.3532 66.4671C30.0815 70.09 27.2336 73.9394 28.1829 74.8451C29.1322 75.7508 33.8786 72.5808 38.8623 68.0521C49.3044 58.3155 45.5073 56.9569 34.3532 66.4671Z" fill="#5F0B47"/>
<path d="M213 61.6787C213 64.3419 220.415 71 223.468 71C227.611 71 226.521 67.0051 221.287 63.4542C215.835 59.4593 213 59.0154 213 61.6787Z" fill="#5F0B47"/>
<path d="M103.597 66.5681C96.1012 71.0483 93.6027 76 98.5998 76C99.9626 76 104.733 72.6988 109.048 68.9261C117.68 60.909 114.5 59.4942 103.597 66.5681Z" fill="#5F0B47"/>
<path d="M19.2579 65.565C17.6503 66.2931 15.3537 68.7198 14.2054 71.3892C12.3681 75.0293 12.5978 76 15.124 76C17.191 76 19.7173 73.8159 21.0952 70.9039C24.0808 65.3224 23.6215 64.109 19.2579 65.565Z" fill="#5F0B47"/>
<path d="M184.114 71.1986C187.436 75.1434 191.421 77.6088 192.529 76.8692C193.857 75.883 192.307 72.9245 188.764 69.4728C180.129 61.3368 176.586 62.5695 184.114 71.1986Z" fill="#5F0B47"/>
<path d="M128.59 68.6604C124.45 69.0927 121 70.3893 121 71.6859C121 72.9825 123.76 73.4147 128.13 72.5503C132.04 71.902 137.33 71.2537 139.63 71.2537C142.16 71.2537 144 70.3893 144 69.5249C144 67.796 140.78 67.5799 128.59 68.6604Z" fill="#5F0B47"/>
<path d="M50.8233 75.08C45.7315 81.3927 44.5743 85 47.8145 85C50.129 85 58.2297 71.4727 56.841 70.12C56.1467 69.4436 53.6007 71.6982 50.8233 75.08Z" fill="#5F0B47"/>
<path d="M85 72.5155C85 75.5915 85.6863 75.8113 89.118 73.1746C91.1771 71.6366 93.4649 69.8789 93.9224 69.6592C94.38 69.2197 92.7785 69 90.0332 69C86.8302 69 85 70.3183 85 72.5155Z" fill="#5F0B47"/>
<path d="M254.339 76.8386C255.941 81.084 258.23 84.2122 259.374 83.9887C262.12 83.3184 261.205 75.9449 258.001 71.9229C253.195 66.5604 251.593 68.7948 254.339 76.8386Z" fill="#5F0B47"/>
<path d="M164.995 74.5755C175.738 79.1415 178.774 79.1415 173.403 74.5755C170.834 72.5462 166.163 70.7706 162.893 71.0242C157.288 71.0242 157.521 71.5316 164.995 74.5755Z" fill="#5F0B47"/>
<path d="M211.468 78.0109C215.368 85.2555 220 87.3588 220 81.9837C220 78.712 212.443 71 209.274 71C208.543 71 209.274 74.0381 211.468 78.0109Z" fill="#5F0B47"/>
<path d="M263 74.4451C263.22 75.8328 264.541 79.3019 266.082 82.3085C268.063 86.2401 269.383 86.934 270.704 84.8525C271.585 83.2336 270.484 79.9957 267.622 77.2204C265.201 74.4451 263 73.2888 263 74.4451Z" fill="#5F0B47"/>
<path d="M60.2414 80.5291C58.4897 83.8823 58.4897 85 60.8983 85C63.9638 85 69 80.7526 69 77.8465C69 74.2697 62.4311 76.2817 60.2414 80.5291Z" fill="#5F0B47"/>
<path d="M100.82 86.0802C93.0981 94.1604 93.0981 96.0073 100.593 91.8518C105.363 89.5432 113.312 78 110.36 78C109.451 78 105.136 81.6938 100.82 86.0802Z" fill="#5F0B47"/>
<path d="M122.233 81.1349C114.759 84.4891 112.121 89.4086 118.935 87.6197C123.551 86.278 134.542 77.7807 131.465 78.0043C130.366 78.0043 125.969 79.346 122.233 81.1349Z" fill="#5F0B47"/>
<path d="M139.986 80.0253C144.428 82.6582 160.641 82.6582 158.865 80.0253C158.198 78.8101 152.868 78 147.093 78C139.542 78 137.543 78.6076 139.986 80.0253Z" fill="#5F0B47"/>
<path d="M204.087 88.73C209.244 96.7205 211.486 98.5468 211.934 95.8073C212.831 90.7847 204.311 78 200.051 78C197.809 78 199.154 81.4245 204.087 88.73Z" fill="#5F0B47"/>
<path d="M227 79.5486C227.211 82.8669 235.239 92.3795 236.718 90.8309C238.408 88.8399 232.07 78 229.113 78C227.845 78 227 78.6637 227 79.5486Z" fill="#5F0B47"/>
<path d="M20.9247 86.2638C16.005 92.4806 14.365 101 17.8791 101C19.5191 101 23.736 94.0924 29.5928 81.8889C31.7013 77.7444 25.1416 80.9679 20.9247 86.2638Z" fill="#5F0B47"/>
<path d="M33.4636 87.0601C29.0734 94.659 29.0734 96 32.2441 96C34.1953 96 42 84.6016 42 81.4727C42 77.8967 36.6342 81.2492 33.4636 87.0601Z" fill="#5F0B47"/>
<path d="M72.3731 85.9997C67.6203 94.1592 70.6448 97.279 75.8297 89.5995C80.5825 82.8798 81.2306 80 77.99 80C76.9098 80 74.3174 82.6399 72.3731 85.9997Z" fill="#5F0B47"/>
<path d="M183 81.7043C183 82.5978 185.166 85.9487 187.814 89.0762C192.387 94.6609 196.719 94.2142 194.312 88.1826C192.868 84.6084 183 79.0236 183 81.7043Z" fill="#5F0B47"/>
<path d="M165 85.1542C165 87.2079 172.429 92 175.679 92C176.608 92 175.447 89.9462 173.126 87.4361C168.715 82.644 165 81.503 165 85.1542Z" fill="#5F0B47"/>
<path d="M245 85.8814C245 87.4329 246.633 90.7576 248.5 93.1957C251.3 96.742 251.767 96.9637 252 93.639C252 88.5411 249.433 83 247.1 83C245.933 83 245 84.3299 245 85.8814Z" fill="#5F0B47"/>
<path d="M80.8063 93.5845C75.1487 100.935 74.4414 105.39 78.9204 103.608C81.7493 102.717 90 91.357 90 88.4614C90 85.1203 85.0496 87.7932 80.8063 93.5845Z" fill="#5F0B47"/>
<path d="M147.898 89C150.363 90.1111 154.844 91 157.982 91C163.136 91 163.136 90.7778 159.102 89C156.637 87.8889 152.155 87 149.018 87C143.864 87 143.864 87.2222 147.898 89Z" fill="#5F0B47"/>
<path d="M6.58615 90.6553C4.05808 93.061 4.74755 101 7.27563 101C10.0335 101 14.4002 92.5799 12.5616 90.4147C10.723 88.4901 8.42475 88.4901 6.58615 90.6553Z" fill="#5F0B47"/>
<path d="M119.787 92.5727C114.778 94.8682 112.153 99 115.493 99C117.879 99 131 92.1136 131 90.9659C131 89.1295 125.513 90.0477 119.787 92.5727Z" fill="#5F0B47"/>
<path d="M221.48 99.4904C222.679 108.206 222.199 109.811 218.842 109.811C214.526 109.811 213.567 120.132 217.404 125.865C220.761 130.911 223.398 126.553 222.439 117.609C222.199 113.251 222.919 109.811 224.358 109.811C227.235 109.811 227.954 98.8024 225.556 92.8394C222.439 85.2709 220.041 89.6285 221.48 99.4904Z" fill="#5F0B47"/>
<path d="M53.4917 97.5227C52.8019 99.6384 52.8019 101.989 53.7217 102.695C55.3314 104.34 62 98.9332 62 96.1122C62 92.5859 55.1014 93.7614 53.4917 97.5227Z" fill="#5F0B47"/>
<path d="M185.87 102.148C188.46 106.572 191.267 109.598 192.346 108.9C195.152 107.037 188.245 94 184.575 94C182.2 94 182.416 95.6297 185.87 102.148Z" fill="#5F0B47"/>
<path d="M99.0262 101.455C95.7593 104.636 92.0257 106.455 89.4589 105.773C86.4254 104.864 84.0919 106.682 81.525 111.682C77.0914 119.636 77.0914 121 80.1249 121C81.2917 121 84.0919 117.818 86.192 113.955C88.9922 108.273 90.3923 107.364 92.0257 109.864C93.8925 112.364 95.2926 111.682 99.9596 106.682C105.093 101.227 107.427 96 105.093 96C104.627 96 101.826 98.5 99.0262 101.455Z" fill="#5F0B47"/>
<path d="M136.105 98.1692C135.417 99.2918 138.167 100.19 142.979 99.9654C147.333 99.7408 151 98.8428 151 97.7202C151 95.2505 137.938 95.475 136.105 98.1692Z" fill="#5F0B47"/>
<path d="M176.467 102.034C179.406 105.413 182.346 107.585 182.798 106.861C184.38 105.171 176.241 96 173.528 96C172.171 96 173.528 98.6548 176.467 102.034Z" fill="#5F0B47"/>
<path d="M121.341 101.725C117.718 102.872 115 104.936 115 106.082C115 108.834 115.226 108.834 124.964 104.706C137.646 99.2025 134.476 96.6799 121.341 101.725Z" fill="#5F0B47"/>
<path d="M158 100.51C158 101.357 161.267 103.898 165 105.803C168.967 107.921 172 108.556 172 107.497C172 106.227 168.967 103.898 165 101.992C161.267 100.087 158 99.4513 158 100.51Z" fill="#5F0B47"/>
<path d="M263.511 105.874C264.237 109.656 264.964 114.328 264.964 115.885C264.964 117.665 266.66 119 268.597 119C272.958 119 272.958 118.11 269.566 107.209C266.66 97.1979 261.33 95.8631 263.511 105.874Z" fill="#5F0B47"/>
<path d="M274 106.457C274 112.691 274.992 115 277.967 115C281.191 115 281.686 113.615 280.199 108.535C277.471 98.1443 274 96.9898 274 106.457Z" fill="#5F0B47"/>
<path d="M38.0375 109.281C35.2865 116.641 35.2865 122.162 38.2491 119.172C41.0001 115.951 45.4441 101 43.5395 101C42.2698 101 39.7305 104.68 38.0375 109.281Z" fill="#5F0B47"/>
<path d="M61.9603 104.559C60.5798 106.094 59.6595 109.821 60.1197 112.672C60.8099 117.495 61.2701 117.276 64.9513 110.698C68.8625 103.463 66.7919 98.859 61.9603 104.559Z" fill="#5F0B47"/>
<path d="M197 101.994C197 106.541 202.46 117 205.081 117C208.358 117 207.266 109.497 203.116 103.813C200.931 101.312 197 99.9476 197 101.994Z" fill="#5F0B47"/>
<path d="M236 102.143C236 105.343 243.201 117 245.002 117C247.702 117 247.702 117 244.777 108.086C243.427 104.2 240.951 101 239.151 101C237.35 101 236 101.457 236 102.143Z" fill="#5F0B47"/>
<path d="M25.2765 109.48C22.4056 115.193 22.1664 124 25.0373 124C26.2335 124 27.9082 121.382 28.6259 118.287C29.3436 115.193 30.7791 110.909 31.4968 108.766C33.65 103.292 28.3867 104.006 25.2765 109.48Z" fill="#5F0B47"/>
<path d="M102.294 112.345C95.7011 119.804 94.2361 124 98.1429 124C100.585 124 111.328 107.682 109.863 106.051C109.131 105.585 105.957 108.382 102.294 112.345Z" fill="#5F0B47"/>
<path d="M130.385 107.283C128.569 108.482 127.662 109.921 128.116 110.401C129.931 112.32 144 109.202 144 107.043C144 104.164 134.696 104.404 130.385 107.283Z" fill="#5F0B47"/>
<path d="M151 107.418C151 109.027 158.529 114.77 161.117 115C165.117 115 162.293 110.865 156.882 108.567C153.588 107.189 151 106.499 151 107.418Z" fill="#5F0B47"/>
<path d="M255.37 107.057C254.544 108.64 255.163 114.07 256.608 119.273L259.291 129L259.91 120.63C260.529 111.355 257.846 102.985 255.37 107.057Z" fill="#5F0B47"/>
<path d="M3.62886 110.491C0.443297 113.556 -0.011784 121 3.17378 121C5.44919 121 10 113.994 10 110.272C10 107.207 7.04197 107.207 3.62886 110.491Z" fill="#5F0B47"/>
<path d="M13.9801 112.918C10.5969 117.376 9.92026 126.762 12.8524 127.935C14.4312 128.404 16.0101 126.292 16.9123 123.008C17.5889 119.957 18.9422 115.734 19.6189 113.622C21.1977 109.164 17.5889 108.695 13.9801 112.918Z" fill="#5F0B47"/>
<path d="M49.3173 115.058C44.6512 120.637 43.4847 128 47.2176 128C49.084 128 51.1838 125.099 52.117 121.083C53.9835 113.273 52.8169 110.819 49.3173 115.058Z" fill="#5F0B47"/>
<path d="M68.6579 113.554C65.6384 116.262 67.032 121 70.516 121C72.3741 121 74 118.969 74 116.487C74 111.974 71.4451 110.62 68.6579 113.554Z" fill="#5F0B47"/>
<path d="M105.538 121.578C100.097 131.858 99.8609 133 103.173 133C105.065 133 115 117.009 115 113.582C115 109.47 109.559 113.81 105.538 121.578Z" fill="#5F0B47"/>
<path d="M175.182 117.858C176.366 123.717 183 131.216 183 126.529C183 121.842 178.498 112 176.366 112C175.182 112 174.708 114.578 175.182 117.858Z" fill="#5F0B47"/>
<path d="M195 121.114C195 128.043 195.877 130.583 197.851 129.89C200.921 128.735 200.702 117.188 197.193 113.493C195.658 111.877 195 114.186 195 121.114Z" fill="#5F0B47"/>
<path d="M118.633 116.488C117.7 117.133 117 119.285 117 121.006C117 123.588 117.7 123.588 120.5 121.436C122.367 119.93 124 117.994 124 116.918C124 114.551 120.733 114.336 118.633 116.488Z" fill="#5F0B47"/>
<path d="M133 117.025C133 119.658 137.679 119.658 142.358 117.025C145.165 115.405 144.464 115 139.551 115C135.807 115 133 115.81 133 117.025Z" fill="#5F0B47"/>
<path d="M151.428 117.923C152.99 119.564 155.892 121 157.901 121C160.803 120.795 160.803 120.385 157.231 117.923C151.428 114.026 147.857 114.026 151.428 117.923Z" fill="#5F0B47"/>
<path d="M185.799 119.199C186.73 122.279 187.428 125.36 187.428 126.24C187.428 127.34 188.592 128 189.756 128C193.48 128 192.316 120.079 188.126 116.778C184.635 113.918 184.402 114.358 185.799 119.199Z" fill="#5F0B47"/>
<path d="M167.589 126.735C171.235 133.688 173.18 135.542 173.909 132.761C174.881 128.589 167.833 117 164.43 117C163.215 117 164.673 121.404 167.589 126.735Z" fill="#5F0B47"/>
<path d="M229.42 120.6C230.189 122.625 230.958 126.675 230.958 129.6C230.958 132.525 232.24 135 233.522 135C236.341 135 236.854 126.225 234.547 120.6C233.778 118.575 231.727 117 230.445 117C228.907 117 228.651 118.575 229.42 120.6Z" fill="#5F0B47"/>
<path d="M85.6423 129.096C84.1409 136.497 85.3921 142.048 88.1446 139.273C90.647 136.728 92.1484 121 89.8963 121C88.3949 121 86.6432 124.701 85.6423 129.096Z" fill="#5F0B47"/>
<path d="M142 123.5C142 124.75 143.219 126 144.681 126C145.9 126 146.388 124.75 145.656 123.5C144.925 122 143.706 121 142.975 121C142.488 121 142 122 142 123.5Z" fill="#5F0B47"/>
<path d="M207.4 122.936C206.7 123.626 206 128.449 206 133.272C206 139.474 206.933 142 209.5 142C212.067 142 213 139.474 213 133.042C213 124.315 210.667 119.951 207.4 122.936Z" fill="#5F0B47"/>
<path d="M122.493 127.46C120.823 132.535 123.746 135.073 126.042 130.92C128.756 126.307 128.547 124 126.042 124C124.789 124 123.328 125.615 122.493 127.46Z" fill="#5F0B47"/>
<path d="M132.157 125.695C130.345 127.687 130.748 133 132.761 133C135.176 133 137.189 126.802 135.176 125.473C134.17 124.809 132.962 124.809 132.157 125.695Z" fill="#5F0B47"/>
<path d="M56.5625 128.674C54.2708 135.557 54.5 139.997 57.25 140.885C59.0833 141.551 60 139.331 60 134.002C60 126.01 58.3958 123.567 56.5625 128.674Z" fill="#5F0B47"/>
<path d="M149 127.727C149 128.896 150.622 131.466 152.708 133.102C155.953 135.907 156.416 135.673 155.721 131.934C154.794 127.26 149 123.754 149 127.727Z" fill="#5F0B47"/>
<path d="M160 130.5C160 132.975 161.25 135 162.5 135C164 135 165 132.975 165 130.5C165 128.025 164 126 162.5 126C161.25 126 160 128.025 160 130.5Z" fill="#5F0B47"/>
<path d="M276.486 133.457C275.496 141.922 275.892 143.333 278.861 140.982C281.434 139.101 281.83 128.754 279.257 127.108C278.267 126.403 277.079 129.224 276.486 133.457Z" fill="#5F0B47"/>
<path d="M65.5661 133.52C64.1032 139.873 65.5661 146 68.9101 146C69.955 146 71 141.916 71 136.923C71 126.939 67.6561 124.67 65.5661 133.52Z" fill="#5F0B47"/>
<path d="M94 140C94 144.95 95.25 149 96.5 149C98 149 99 144.95 99 140C99 135.05 98 131 96.5 131C95.25 131 94 135.05 94 140Z" fill="#5F0B47"/>
<path d="M111.556 132.469C109.189 134.644 109.663 144 112.03 144C113.923 144 116.763 137.038 117 132.469C117 130.51 113.686 130.51 111.556 132.469Z" fill="#5F0B47"/>
<path d="M144 133.419C144 137.943 147.841 140.799 149.761 137.705C150.481 136.514 149.521 134.372 147.601 132.705C144.72 130.324 144 130.324 144 133.419Z" fill="#5F0B47"/>
<path d="M245 138.5C245 142.571 246 146 247 146C248.2 146 249 142.571 249 138.5C249 134.429 248.2 131 247 131C246 131 245 134.429 245 138.5Z" fill="#5F0B47"/>
<path d="M268 138.5C268 142.571 269 146 270 146C271.2 146 272 142.571 272 138.5C272 134.429 271.2 131 270 131C269 131 268 134.429 268 138.5Z" fill="#5F0B47"/>
<path d="M21.7983 136.147C19.8901 140.736 21.5598 146.853 25.1377 147.946C27.0459 148.383 28 146.198 28 140.954C28 133.088 24.1836 130.248 21.7983 136.147Z" fill="#5F0B47"/>
<path d="M33.5787 137.811C31.9287 143.538 34.0501 149.495 36.8786 147.662C39.7071 146.058 39.7071 133 36.8786 133C35.7001 133 34.2858 135.062 33.5787 137.811Z" fill="#5F0B47"/>
<path d="M76 140.918C76 145.536 76.9524 148.395 78.619 147.956C80.0476 147.516 81 146.416 81 145.536C80.7619 144.657 80.7619 141.577 80.7619 138.498C80.7619 135.419 79.8095 133 78.381 133C77.1905 133 76 136.519 76 140.918Z" fill="#5F0B47"/>
<path d="M180.362 134.62C178.392 136.552 178.589 146 180.756 146C183.12 146 185.089 136.767 183.317 134.834C182.332 133.761 181.15 133.761 180.362 134.62Z" fill="#5F0B47"/>
<path d="M0 138.674C0 143.675 4.19345 150.581 5.92016 148.676C6.66018 147.962 7.64688 144.866 7.89355 141.77C8.3869 137.96 7.15353 135.816 4.44012 135.102C1.48004 134.626 0 135.816 0 138.674Z" fill="#5F0B47"/>
<path d="M197.442 142.243C196.086 146.127 195.633 150.012 196.312 150.697C198.121 152.753 204 143.843 204 139.045C204 132.419 200.156 134.247 197.442 142.243Z" fill="#5F0B47"/>
<path d="M220.752 137.912C218.237 144.565 218.465 159.017 221.209 159.935C224.867 161.311 227.838 140.435 224.638 137.224C222.809 135.388 221.666 135.618 220.752 137.912Z" fill="#5F0B47"/>
<path d="M10.5123 142.682C9.03489 149.609 10.9345 160 13.8894 160C15.1557 160 16 154.689 16 148.455C16 136.217 12.834 132.984 10.5123 142.682Z" fill="#5F0B47"/>
<path d="M44.9663 140.377C42.7903 145.676 44.4828 153.845 48.1095 154.949C51.4944 155.832 52.2197 145.013 48.593 139.935C46.6588 137.286 46.1752 137.286 44.9663 140.377Z" fill="#5F0B47"/>
<path d="M101.42 140.841C102.29 143.012 102.942 146.486 102.942 148.874C102.942 151.046 104.029 153 105.334 153C108.596 153 106.639 139.321 103.16 138.235C100.985 137.584 100.55 138.235 101.42 140.841Z" fill="#5F0B47"/>
<path d="M154.784 138.91C153.765 139.639 153 141.584 153 143.042C153 144.501 154.274 144.258 156.059 142.556C157.588 141.098 158.352 139.153 157.843 138.424C157.078 137.695 155.549 137.938 154.784 138.91Z" fill="#5F0B47"/>
<path d="M169.649 140.907C167.627 144.253 167.374 146.261 169.396 147.153C173.189 149.383 174.706 147.153 173.695 141.13L172.936 136L169.649 140.907Z" fill="#5F0B47"/>
<path d="M185.921 146.323C184.359 151.63 183.689 156.244 184.136 156.705C185.921 158.551 190.16 151.399 191.498 144.247C193.506 133.403 189.044 135.249 185.921 146.323Z" fill="#5F0B47"/>
<path d="M119 143.131C119 144.92 120.25 147.157 121.5 147.828C123 148.499 124 147.157 124 144.697C124 142.013 123 140 121.5 140C120.25 140 119 141.342 119 143.131Z" fill="#5F0B47"/>
<path d="M128 141.878C128 144.59 134.807 149.18 136.685 147.72C138.328 146.051 133.164 140 130.112 140C128.939 140 128 140.835 128 141.878Z" fill="#5F0B47"/>
<path d="M157.33 145.41C154.586 151 156.415 155.3 159.845 151.645C160.989 150.57 162.59 147.56 163.505 144.765C165.563 138.1 160.76 138.53 157.33 145.41Z" fill="#5F0B47"/>
<path d="M256 147.758C256 156.594 259.459 155.947 260.757 146.465C261.405 142.155 260.757 140 258.811 140C257.081 140 256 142.802 256 147.758Z" fill="#5F0B47"/>
<path d="M141.258 144C141.806 145 142.72 146 143.269 146C143.634 146 144 145 144 144C144 142.8 143.086 142 141.989 142C141.075 142 140.709 142.8 141.258 144Z" fill="#5F0B47"/>
<path d="M232.374 148.635C230.435 158.376 230.435 162 233.101 162C236.008 162 238.431 145.464 236.008 143.198C235.039 142.292 233.343 144.557 232.374 148.635Z" fill="#5F0B47"/>
<path d="M89.6641 147.158C87.6203 149.22 90.686 162.738 93.5474 163.883C94.7737 164.341 96 163.425 96 161.592C95.7956 156.552 90.8904 145.554 89.6641 147.158Z" fill="#5F0B47"/>
<path d="M112 150.813C112 153.059 117.061 158 119.361 158C120.511 158 120.051 155.979 118.441 153.508C115.451 149.016 112 147.444 112 150.813Z" fill="#5F0B47"/>
<path d="M143.913 150.548C145.326 151.297 147.143 151.047 147.749 150.298C148.557 149.549 147.345 148.799 145.124 149.049C142.903 149.049 142.297 149.798 143.913 150.548Z" fill="#5F0B47"/>
<path d="M27.452 152.265C25.3523 154.859 25.5622 165 27.872 165C31.0216 165 31.6515 161.934 30.3917 156.038C29.7617 152.972 28.5019 151.321 27.452 152.265Z" fill="#5F0B47"/>
<path d="M58 155.001C58 160.415 61.5174 166.535 63.3795 164.652C65.2417 162.298 62.5519 151 60.069 151C58.8276 151 58 152.883 58 155.001Z" fill="#5F0B47"/>
<path d="M68.5155 153.207C66.3835 156.187 71.3582 172 74.4378 172C76.096 172 76.3329 169.021 75.6223 163.52C73.964 154.582 70.6475 149.54 68.5155 153.207Z" fill="#5F0B47"/>
<path d="M128 152.879C128 155.061 135.174 158.115 136.848 156.588C137.565 156.152 135.652 154.625 133.022 153.098C130.152 151.789 128 151.57 128 152.879Z" fill="#5F0B47"/>
<path d="M168.647 157.55C165.206 160.905 162.682 165.154 163.141 166.943C163.6 169.179 161.994 169.85 157.176 169.403C152.817 168.732 151.211 169.403 152.358 170.969C153.047 172.31 154.882 172.758 156.259 172.087C157.635 171.192 159.241 171.863 160.159 173.205C161.306 174.77 164.059 174.099 168.876 170.521C175.759 165.601 178.512 160.458 173.465 161.8C172.088 162.247 172.547 160.681 174.841 158.221C183.33 149.052 177.594 148.381 168.647 157.55Z" fill="#5F0B47"/>
<path d="M274 158C274 161.733 275.25 165 276.5 165C278 165 279 161.733 279 158C279 154.033 278 151 276.5 151C275.25 151 274 154.033 274 158Z" fill="#5F0B47"/>
<path d="M79.4916 154.083C77.6541 155.932 81.3292 169.1 84.545 172.334C88.9092 176.724 89.1389 172.103 85.2341 162.4C82.9371 157.087 80.4104 153.39 79.4916 154.083Z" fill="#5F0B47"/>
<path d="M146.956 155.084C141.967 156.764 143.781 160.335 148.77 158.865C152.172 157.814 153.079 158.025 152.172 159.705C149.677 163.276 158.975 162.436 162.15 158.865C163.737 156.974 164.418 155.084 163.737 154.243C162.83 153.613 160.789 154.243 158.748 155.714C156.48 157.394 154.439 157.604 152.625 156.344C151.038 155.084 148.316 154.663 146.956 155.084Z" fill="#5F0B47"/>
<path d="M203.431 158.932C200.19 166.254 200.19 169 203.431 169C206.422 169 213.652 156.416 211.657 154.356C208.666 151.611 205.674 152.984 203.431 158.932Z" fill="#5F0B47"/>
<path d="M267.033 154.818C264.067 159.545 262.927 169 265.208 169C268.63 169 272.736 157.519 270.226 155.043C268.858 153.692 267.489 153.692 267.033 154.818Z" fill="#5F0B47"/>
<path d="M101 159.096C101 163.636 107.201 172 110.523 172C113.402 172 112.073 168.415 106.536 161.246C101.664 154.794 101 154.555 101 159.096Z" fill="#5F0B47"/>
<path d="M35 159.143C35 162.52 40.4662 174 42.0605 174C44.7936 174 44.5658 167.922 41.8327 162.52C39.7829 158.918 35 156.442 35 159.143Z" fill="#5F0B47"/>
<path d="M191.262 163.4C190.547 166.325 189.117 170.375 188.402 172.4C187.687 174.425 187.926 176 189.117 176C191.977 176 199.605 161.15 197.698 159.35C194.838 156.65 192.692 158 191.262 163.4Z" fill="#5F0B47"/>
<path d="M114.88 166.114C118.355 169.511 121.831 171.549 122.758 170.87C124.611 169.058 115.343 160 111.636 160C110.014 160 111.636 162.717 114.88 166.114Z" fill="#5F0B47"/>
<path d="M240 168.312C240 177.779 244.151 177.086 245.708 166.927C246.486 162.309 245.708 160 243.373 160C241.297 160 240 163.002 240 168.312Z" fill="#5F0B47"/>
<path d="M49.5487 164.138C46.7536 168.651 55.3719 183.854 58.8658 180.529C60.0305 179.341 53.2756 162 51.6451 162C51.1792 162 50.2475 162.95 49.5487 164.138Z" fill="#5F0B47"/>
<path d="M129.172 164.5C129.843 165.75 132.08 167 133.869 167C135.658 167 137 165.75 137 164.5C137 163 134.987 162 132.303 162C129.843 162 128.501 163 129.172 164.5Z" fill="#5F0B47"/>
<path d="M3.20302 167.356C3.91919 168.858 6.3064 170.574 8.45488 170.789C11.3195 171.432 12.5131 170.574 11.797 168.644C11.0808 167.142 8.6936 165.426 6.54512 165.211C3.68046 164.568 2.48686 165.426 3.20302 167.356Z" fill="#5F0B47"/>
<path d="M174.993 170.058C172.705 173.437 172.477 175.465 173.849 175.916C176.366 176.817 182.771 170.283 183 166.678C183 163.299 178.653 165.326 174.993 170.058Z" fill="#5F0B47"/>
<path d="M16 172.927C16 181.369 19.733 187.231 22.7661 184.183C25.7991 181.134 22.7661 168.471 18.7998 167.064C17.1666 166.595 16 168.706 16 172.927Z" fill="#5F0B47"/>
<path d="M213.58 172.6C210.219 179.814 210.219 185 213.132 185C216.046 185 222.321 171.247 220.752 168.767C218.735 165.385 216.046 166.963 213.58 172.6Z" fill="#5F0B47"/>
<path d="M249.372 172.842C246.426 180.259 246.18 187.444 248.881 184.199C253.299 179.564 256.491 169.597 254.281 168.206C252.808 167.279 250.599 169.597 249.372 172.842Z" fill="#5F0B47"/>
<path d="M97.2726 174.514C98.642 178.377 110.053 186.558 111.879 184.74C112.563 184.058 110.281 180.877 106.858 177.695C99.783 171.559 95.9033 170.196 97.2726 174.514Z" fill="#5F0B47"/>
<path d="M128 174.123C128 175.061 131.657 176 136 176C140.343 176 144 175.531 144 175.061C144 174.592 140.343 173.653 136 173.184C131.657 172.715 128 173.184 128 174.123Z" fill="#5F0B47"/>
<path d="M32 177.611C32 183.024 38.1915 191.967 40.3347 189.614C42.716 187.495 38.1915 175.257 34.8576 174.081C33.1907 173.61 32 175.257 32 177.611Z" fill="#5F0B47"/>
<path d="M67 176.543C67 182.033 69.5779 188 71.9215 188C75.2025 188 74.4995 182.271 70.5154 177.02C67.7031 173.201 67.2344 172.962 67 176.543Z" fill="#5F0B47"/>
<path d="M266.432 178.827C264.614 186.287 268.932 188.92 271.887 181.899C274.841 174.219 274.841 174 270.978 174C269.387 174 267.341 176.194 266.432 178.827Z" fill="#5F0B47"/>
<path d="M117.761 179.431C125.423 183.353 134.663 184.334 131.282 180.902C129.93 179.677 124.972 178.206 120.014 177.471L111 176L117.761 179.431Z" fill="#5F0B47"/>
<path d="M224.757 179.536C223.748 181.517 223.748 183.939 224.757 184.599C225.514 185.48 227.784 184.819 229.297 183.499C231.568 181.517 231.568 180.197 229.297 178.216C227.027 176.235 226.018 176.675 224.757 179.536Z" fill="#5F0B47"/>
<path d="M259.049 178.888C257.732 180.314 256.195 185.067 255.317 188.87L254 196L258.39 190.296C261.024 187.206 263 182.69 263 180.314C263 175.085 262.122 174.61 259.049 178.888Z" fill="#5F0B47"/>
<path d="M78 180.348C78 183.662 89.2783 195.499 90.8573 193.842C91.534 193.132 89.7295 189.107 87.0227 185.319C82.2858 177.981 78 175.85 78 180.348Z" fill="#5F0B47"/>
<path d="M90 180.493C90 184.432 98.3797 190.225 103.815 189.993C107.212 189.993 107.892 189.298 105.853 188.603C104.042 187.908 99.7386 185.127 96.3414 182.81C92.7177 180.261 90 179.335 90 180.493Z" fill="#5F0B47"/>
<path d="M146.794 181.498C142.337 183.378 141.892 184.082 145.012 184.787C149.468 185.962 157.268 181.968 154.371 180.324C153.257 179.619 149.914 180.089 146.794 181.498Z" fill="#5F0B47"/>
<path d="M193.985 186.199C189.898 192.48 192.623 195.73 197.618 190.098C203.521 183.599 204.429 181 201.023 181C199.207 181 196.028 183.383 193.985 186.199Z" fill="#5F0B47"/>
<path d="M158.345 185.203C155.46 186.303 153.463 187.842 154.129 188.502C155.904 190.262 167 186.962 167 184.763C167 182.344 165.225 182.344 158.345 185.203Z" fill="#5F0B47"/>
<path d="M172.007 188.753C164.17 197.266 168.872 198.877 177.156 190.363C182.082 185.301 183.202 183 180.739 183C178.724 183 174.917 185.531 172.007 188.753Z" fill="#5F0B47"/>
<path d="M48 188.917C48 193.905 56.5831 204.789 58.7289 202.748C60.3978 201.161 53.9605 188.463 50.3842 186.196C49.1921 185.516 48 186.65 48 188.917Z" fill="#5F0B47"/>
<path d="M229.652 191.01C224.762 198.222 227.207 202.308 232.341 195.577C235.764 191.25 237.231 185 234.786 185C234.297 185 231.852 187.644 229.652 191.01Z" fill="#5F0B47"/>
<path d="M11.1755 189.903C10.5009 191.001 11.8501 193.637 13.874 195.833C16.3475 198.249 17.9216 198.688 18.5963 196.931C20.6201 190.781 14.5486 184.851 11.1755 189.903Z" fill="#5F0B47"/>
<path d="M118.938 190.026C120.771 191.123 126.959 192 132.688 192L143 191.781L133.833 189.807C128.792 188.929 122.604 188.052 120.084 188.052C116.188 187.833 116.188 188.271 118.938 190.026Z" fill="#5F0B47"/>
<path d="M62 191.549C62.2324 194.867 71.0632 204.379 72.6899 202.831C74.549 200.84 67.5773 190 64.3239 190C62.9296 190 62 190.664 62 191.549Z" fill="#5F0B47"/>
<path d="M26 194.771C26 196.427 27.9883 200.448 30.4185 203.759C33.2906 208.017 35.2789 208.963 37.0463 207.071C38.8137 205.178 38.151 202.813 34.8371 198.319C29.7558 191.46 26 190.04 26 194.771Z" fill="#5F0B47"/>
<path d="M76 193.536C76 195.779 85.8162 204 88.5556 204C91.9799 204 89.0122 199.516 82.8485 195.779C79.196 193.287 76 192.291 76 193.536Z" fill="#5F0B47"/>
<path d="M212.707 196.9C211.081 199.388 210.617 202.103 211.314 202.782C212.94 204.366 222 196.9 222 193.959C222 190.113 215.031 192.375 212.707 196.9Z" fill="#5F0B47"/>
<path d="M145.623 197.99L139 200.766L145.843 200.98C149.376 201.193 154.453 199.698 156.881 197.99C161.076 195 161.076 195 156.661 195C154.232 195 149.376 196.281 145.623 197.99Z" fill="#5F0B47"/>
<path d="M173.685 199.529C169.385 201.882 166.896 204.449 168.48 204.877C171.875 205.947 185 199.743 185 196.962C185 193.752 182.511 194.394 173.685 199.529Z" fill="#5F0B47"/>
<path d="M195.916 201.11C194.101 204.769 193.42 207.998 194.555 208.859C197.278 210.365 206.582 199.389 204.767 196.806C202.498 193.362 199.547 194.869 195.916 201.11Z" fill="#5F0B47"/>
<path d="M255.694 200.774C251.281 208.949 250.619 214.555 254.812 210.818C256.136 209.416 259.225 205.212 261.431 201.241C264.521 195.635 264.741 194 262.535 194C260.769 194 257.901 197.037 255.694 200.774Z" fill="#5F0B47"/>
<path d="M44 198.371C44 202.029 51.9987 213 54.6649 213C56.4424 213 57.3311 212.314 56.8868 211.171C51.5543 199.743 49.5546 197 46.8884 197C45.3331 197 44 197.686 44 198.371Z" fill="#5F0B47"/>
<path d="M96 198.703C96 200.527 105.825 206 108.567 206C111.995 206 108.796 201.667 103.997 199.615C96.914 196.423 96 196.195 96 198.703Z" fill="#5F0B47"/>
<path d="M116.176 199.017C122.54 201.661 131.403 201.661 129.812 199.017C129.13 197.695 124.585 196.813 120.04 197.034C113.222 197.034 112.54 197.474 116.176 199.017Z" fill="#5F0B47"/>
<path d="M233.604 203.619C231.255 207.773 229.611 211.465 230.08 211.926C231.255 213.08 242.765 200.389 243 197.851C243 193.698 237.832 196.928 233.604 203.619Z" fill="#5F0B47"/>
<path d="M241.729 207.347C239.66 210.662 238.511 213.977 239.2 214.688C240.81 216.345 247.016 211.136 250.004 205.453C253.682 198.586 246.326 200.006 241.729 207.347Z" fill="#5F0B47"/>
<path d="M111.133 208C110.211 209.2 114.128 210 121.5 210C128.872 210 132.789 209.2 131.867 208C131.176 206.8 126.338 206 121.5 206C116.662 206 111.824 206.8 111.133 208Z" fill="#5F0B47"/>
<path d="M140.811 209.397C133.761 212.423 133.761 212.423 145.511 211.343C151.856 210.694 158.2 209.181 159.375 208.1C163.135 204.641 149.036 205.722 140.811 209.397Z" fill="#5F0B47"/>
<path d="M213.661 211.302C209.931 214.37 208.066 217 209.464 217C213.428 217 223.454 208.891 221.822 207.137C220.889 206.48 217.159 208.233 213.661 211.302Z" fill="#5F0B47"/>
<path d="M24.4225 210.143C22.2046 214.193 29.3017 221.34 32.1849 218.243C33.7374 216.576 33.0721 214.432 30.1889 211.573C27.0839 208.714 25.5314 208.238 24.4225 210.143Z" fill="#5F0B47"/>
<path d="M63.9697 212.054C66.9102 217.683 73.0174 222.413 74.827 220.611C76.4103 219.035 66.684 208 63.7436 208C62.6126 208 62.8388 209.802 63.9697 212.054Z" fill="#5F0B47"/>
<path d="M98.4449 212.697C102.607 215.157 106.769 216.499 107.694 215.828C109.775 213.591 100.757 208 95.4391 208C91.5083 208 92.2019 208.895 98.4449 212.697Z" fill="#5F0B47"/>
<path d="M172.487 213.755C168.65 216.657 166.252 219.781 167.212 220.674C169.37 222.683 184.237 214.871 183.997 211.747C183.757 207.506 179.201 208.176 172.487 213.755Z" fill="#5F0B47"/>
<path d="M76 211.77C76 213.691 94.0133 223.509 94.9139 221.802C95.5894 220.948 92.2119 217.96 87.4835 215.612C79.1523 211.13 76 210.063 76 211.77Z" fill="#5F0B47"/>
<path d="M192.401 217.488C189.445 219.744 188.08 221.774 189.672 222C193.766 222 204 217.037 204 214.781C204 211.622 197.86 212.75 192.401 217.488Z" fill="#5F0B47"/>
<path d="M115.145 216.473C110.004 218.636 114.677 222 123.089 222C131.268 222 133.838 218.876 127.295 216.233C123.089 214.551 119.584 214.551 115.145 216.473Z" fill="#5F0B47"/>
<path d="M42 218.852C42 219.992 44.4968 223.184 47.4476 225.92C54.0301 232.076 58.1159 228.2 51.9873 221.36C48.1286 217.028 42 215.432 42 218.852Z" fill="#5F0B47"/>
<path d="M141.951 219.145C136.087 220.412 136.989 224 143.078 224C150.972 224 158.189 221.678 156.836 219.567C155.708 217.667 148.717 217.456 141.951 219.145Z" fill="#5F0B47"/>
<path d="M211.411 224.606C199.813 235.186 202.597 237.716 214.427 227.596C219.298 223.226 222.778 219.087 221.85 218.167C221.154 217.247 216.283 220.237 211.411 224.606Z" fill="#5F0B47"/>
<path d="M58 221.794C58 222.939 60.4057 226.143 63.4675 229.118C67.4041 233.008 69.5911 233.924 71.3407 232.093C72.8716 230.491 71.7781 228.202 67.6228 224.769C61.4992 219.734 58 218.59 58 221.794Z" fill="#5F0B47"/>
<path d="M238.956 224.57C236.658 227.097 235.509 229.854 236.199 230.773C238.037 232.381 247 225.03 247 221.813C247 218.597 243.323 219.746 238.956 224.57Z" fill="#5F0B47"/>
<path d="M191.24 227.432C187.769 230.327 186.034 232.777 187.552 233C191.24 233 201 226.318 201 223.868C201 220.527 198.18 221.64 191.24 227.432Z" fill="#5F0B47"/>
<path d="M225.147 224.241C222.473 227.703 224.661 227.907 229.767 224.852C233.899 222.407 233.899 222 230.739 222C228.551 222 225.877 223.018 225.147 224.241Z" fill="#5F0B47"/>
<path d="M166.623 228.686C161.602 231.241 158.407 234.029 159.092 234.727C160.918 236.585 181 228.453 181 225.897C181 222.645 176.208 223.574 166.623 228.686Z" fill="#5F0B47"/>
<path d="M35.203 229.356C35.9192 230.858 38.3064 232.574 40.4549 232.789C43.3195 233.432 44.5131 232.574 43.797 230.644C43.0808 229.142 40.6936 227.426 38.5451 227.211C35.6805 226.568 34.4869 227.426 35.203 229.356Z" fill="#5F0B47"/>
<path d="M86.4415 231.292C89.0456 233.858 93.3068 235.355 95.6741 234.927C99.4618 234.286 98.7516 233.431 92.5966 230.437C82.417 225.518 80.2864 225.946 86.4415 231.292Z" fill="#5F0B47"/>
<path d="M99.783 228.335C102.986 231.937 119 234.768 119 231.68C119 230.393 115.797 228.592 111.908 227.563C101.613 225.247 97.0377 225.505 99.783 228.335Z" fill="#5F0B47"/>
<path d="M131.568 232.986C128.139 234.31 130.196 234.972 139.112 234.972C145.513 235.192 151 234.089 151 232.986C151 230.338 137.969 230.338 131.568 232.986Z" fill="#5F0B47"/>
<path d="M60 237.896C60 241.713 74.0289 250.019 76.5587 247.549C77.9386 246.202 76.0987 243.733 70.8092 240.59C62.0698 235.427 60 234.754 60 237.896Z" fill="#5F0B47"/>
<path d="M108 237.834C108 239.588 116.387 242 123.009 242C132.058 242 127.864 238.054 117.932 237.177C112.414 236.738 108 237.177 108 237.834Z" fill="#5F0B47"/>
<path d="M209.416 240.518C207.25 242.983 206.383 245 207.466 245C210.066 244.776 217 239.397 217 237.38C217 234.69 213.317 236.035 209.416 240.518Z" fill="#5F0B47"/>
<path d="M217.669 242.186C213.364 245.692 210.418 249.199 211.098 249.856C212.457 251.39 229 240.213 229 237.584C229 234.516 225.827 235.83 217.669 242.186Z" fill="#5F0B47"/>
<path d="M135 239.978C135 242.167 148.55 245.232 150.357 243.481C152.164 241.73 150.357 240.854 142.453 239.54C138.388 238.665 135 238.884 135 239.978Z" fill="#5F0B47"/>
<path d="M164.176 239.986C160.54 241.53 161.222 241.972 168.04 241.972C172.585 242.192 177.13 241.089 177.812 239.986C179.403 237.338 170.54 237.338 164.176 239.986Z" fill="#5F0B47"/>
<path d="M185.642 240.935C178.608 243.544 178.388 243.979 183.664 243.979C186.741 244.197 191.138 242.675 193.556 240.935C198.611 237.022 195.754 237.022 185.642 240.935Z" fill="#5F0B47"/>
<path d="M51.2027 242.764C52.3746 246.538 57.7656 247.293 58 243.519C58 242.009 56.3593 240.499 54.0154 240.248C51.6714 239.493 50.4995 240.499 51.2027 242.764Z" fill="#5F0B47"/>
<path d="M85 241.781C85 245.165 90.3074 249 94.9514 249C99.1531 248.774 99.1531 248.774 94.0668 244.488C88.7594 239.75 85 238.622 85 241.781Z" fill="#5F0B47"/>
<path d="M99 242.5C99 243.75 100.616 245 102.693 245C104.539 245 105.463 243.75 104.77 242.5C104.078 241 102.462 240 101.077 240C99.9232 240 99 241 99 242.5Z" fill="#5F0B47"/>
<path d="M115.21 246.459C117.485 250.14 137.273 252.671 140.23 249.68C142.05 247.839 140.685 247.149 135.681 247.149C131.814 247.149 125.446 246.459 121.351 245.538C116.347 244.618 114.3 244.848 115.21 246.459Z" fill="#5F0B47"/>
<path d="M158.412 246.289C150.753 247.282 148.05 252 155.033 252C161.341 252 169 249.02 169 246.786C169 245.544 168.324 244.799 167.423 245.048C166.297 245.048 162.242 245.792 158.412 246.289Z" fill="#5F0B47"/>
<path d="M189.373 250.409C185.863 252.394 183.45 254.38 184.108 254.821C185.425 256.145 201 249.747 201 248.203C201 245.997 195.735 246.879 189.373 250.409Z" fill="#5F0B47"/>
<path d="M63.1721 254C63.8431 255 66.0796 256 67.8689 256C69.6581 256 71 255 71 254C71 252.8 68.9871 252 66.3033 252C63.8431 252 62.5012 252.8 63.1721 254Z" fill="#5F0B47"/>
<path d="M106 253.795C106 254.931 108.735 256.975 111.926 258.565C119.22 261.744 124.234 259.246 118.536 254.931C113.75 251.751 106 250.842 106 253.795Z" fill="#5F0B47"/>
<path d="M198.915 254.316C192.21 258.06 194.805 260.922 201.511 257.399C205.188 255.417 208 253.436 208 252.995C208 251.234 202.809 251.894 198.915 254.316Z" fill="#5F0B47"/>
<path d="M86.4576 259.518C93.2989 265.036 99 266.581 99 263.27C99 261.063 86.6856 254 82.5808 254C80.9845 254.221 82.8089 256.649 86.4576 259.518Z" fill="#5F0B47"/>
<path d="M164.03 255.336C158.506 256.813 158.736 261 164.26 261C170.245 261 176 258.537 176 255.828C176 253.612 170.936 253.366 164.03 255.336Z" fill="#5F0B47"/>
<path d="M134.174 260.5C134.859 261.75 138.508 263 142.385 263C146.035 263 149 261.75 149 260.5C149 259 145.351 258 140.789 258C135.999 258 133.262 259 134.174 260.5Z" fill="#5F0B47"/>
<path d="M165.858 266.838C161.503 270.435 161.732 270.675 169.296 268.996C179.382 266.838 183.737 263 176.173 263C172.963 263 168.379 264.919 165.858 266.838Z" fill="#5F0B47"/>
<path d="M110.319 267.532C114.85 270.823 124.59 270.823 122.778 267.532C122.098 266.013 118.021 265 114.17 265C108.734 265 107.827 265.759 110.319 267.532Z" fill="#5F0B47"/>
<path d="M140.876 269.983C137.383 271.526 138.547 271.966 146.233 271.966C152.289 272.187 155.782 271.305 154.851 269.983C153.22 267.339 147.398 267.339 140.876 269.983Z" fill="#5F0B47"/>
</svg>
