<svg width="70" height="70" viewBox="0 0 70 70" fill="none" xmlns="http://www.w3.org/2000/svg">
<path fill-rule="evenodd" clip-rule="evenodd" d="M57.1806 0C61.6382 0 63.2546 0.406112 64.8842 1.16871C66.5139 1.9313 67.7928 3.05037 68.6643 4.4763C69.5359 5.90223 70 7.3166 70 11.217V58.783C70 62.6834 69.5359 64.0978 68.6643 65.5237C67.7928 66.9496 66.5139 68.0687 64.8842 68.8313C63.2546 69.5939 61.6382 70 57.1806 70H12.8194C8.36183 70 6.7454 69.5939 5.11577 68.8313C3.48614 68.0687 2.2072 66.9496 1.33566 65.5237C0.464127 64.0978 0 62.6834 0 58.783V11.217C0 7.3166 0.464127 5.90223 1.33566 4.4763C2.2072 3.05037 3.48614 1.9313 5.11577 1.16871C6.7454 0.406112 8.36183 0 12.8194 0H57.1806ZM27.5 54.25H24.5C24.5 57.1495 27.1863 59.5 30.5 59.5C32.292 59.5 33.9006 58.8126 35 57.7227C36.0994 58.8126 37.708 59.5 39.5 59.5C42.8137 59.5 45.5 57.1495 45.5 54.25H42.5L42.4949 54.4042C42.4037 55.7822 41.0977 56.875 39.5 56.875C37.8431 56.875 36.5 55.6997 36.5 54.25H33.5L33.4949 54.4042C33.4037 55.7822 32.0977 56.875 30.5 56.875C28.8431 56.875 27.5 55.6997 27.5 54.25ZM21 30.625C15.4772 30.625 11 34.5425 11 39.375H14C14 35.9923 17.134 33.25 21 33.25C24.7855 33.25 27.8691 35.8792 27.9959 39.1644L28 39.375H31C31 34.5425 26.5228 30.625 21 30.625ZM49 30.625C43.4772 30.625 39 34.5425 39 39.375H42C42 35.9923 45.134 33.25 49 33.25C52.7855 33.25 55.8691 35.8792 55.9959 39.1644L56 39.375H59C59 34.5425 54.5228 30.625 49 30.625Z" fill="#F5F5F7"/>
</svg>
